<?xml version="1.0" encoding="UTF-8" standalone="no"?>
<svg
   xmlns:dc="http://purl.org/dc/elements/1.1/"
   xmlns:cc="http://creativecommons.org/ns#"
   xmlns:rdf="http://www.w3.org/1999/02/22-rdf-syntax-ns#"
   xmlns:svg="http://www.w3.org/2000/svg"
   xmlns="http://www.w3.org/2000/svg"
   xmlns:sodipodi="http://sodipodi.sourceforge.net/DTD/sodipodi-0.dtd"
   xmlns:inkscape="http://www.inkscape.org/namespaces/inkscape"
   id="Capa_2"
   data-name="Capa 2"
   viewBox="0 0 75.05 78.67"
   version="1.1"
   sodipodi:docname="engranaphic_gear.svg"
   inkscape:version="1.0.2 (e86c870879, 2021-01-15, custom)">
  <metadata
     id="metadata16">
    <rdf:RDF>
      <cc:Work
         rdf:about="">
        <dc:format>image/svg+xml</dc:format>
        <dc:type
           rdf:resource="http://purl.org/dc/dcmitype/StillImage" />
      </cc:Work>
    </rdf:RDF>
  </metadata>
  <sodipodi:namedview
     pagecolor="#ffffff"
     bordercolor="#666666"
     borderopacity="1"
     objecttolerance="10"
     gridtolerance="10"
     guidetolerance="10"
     inkscape:pageopacity="0"
     inkscape:pageshadow="2"
     inkscape:window-width="1920"
     inkscape:window-height="1017"
     id="namedview14"
     showgrid="false"
     inkscape:zoom="7.6400251"
     inkscape:cx="59.527952"
     inkscape:cy="36.057267"
     inkscape:window-x="-8"
     inkscape:window-y="-8"
     inkscape:window-maximized="1"
     inkscape:current-layer="Capa_1-2" />
  <defs
     id="defs4">
    <style
       id="style2">
      .cls-1 {
        fill: #1d1d1b;
      }
    </style>
  </defs>
  <g
     id="Capa_1-2"
     data-name="Capa 1">
    <g
       id="g10">
      <path
         class="cls-1"
         d="M 7.68,61.61 C 6.57,60.05 5.47,58.39 4.49,56.65 3.99,55.75 4.48,54.02 5.22,53.34 7.5,51.24 8.5,49.08 8.36,46.56 L 8.29,46.32 C 7.84,44.74 7.51,43.14 7.3,41.43 7.16,40.56 7.06,39.6 6.99,38.58 6.68,37.83 6.21,37.25 5.52,36.78 4.87,36.33 3.59,35.6 2.99,35.44 -0.06,34.61 -0.14,32.15 0.07,30.37 0.21,29.18 0.42,28.06 0.71,27.02 1.69,23.49 2.08,23.19 5.88,23.08 7.97,23.02 9.52,22.8 10.72,21.93 l 0.07,-0.11 c 0.71,-1.3 1.53,-2.59 2.42,-3.82 l 0.06,-0.08 c 0.61,-0.84 1.39,-1.8 2.35,-2.89 0.3,-0.35 0.61,-0.7 0.94,-1.08 0.16,-0.79 0,-1.69 -0.52,-3.05 -0.95,-2.45 1.02,-3.81 2.32,-4.71 l 0.29,-0.2 c 1.23,-0.87 3.25,-2.29 5.2,0.06 0.68,0.82 1.45,1.24 2.36,1.29 1.35,-0.57 2.69,-1.05 4.09,-1.46 l 0.32,0.69 -0.21,-0.72 c 1.54,-0.46 3,-0.79 4.48,-1.02 0.72,-0.12 1.38,-0.21 1.98,-0.28 0.85,-0.49 1.45,-1.23 1.82,-2.26 0.94,-2.58 2.94,-2.37 4.55,-2.2 l 0.19,0.02 c 1.56,0.16 3.36,0.68 3.42,3.35 0.02,0.86 0.29,1.58 0.79,2.08 l 0.12,0.04 c 1.42,0.35 4.18,1.17 7.43,2.91 l 0.11,0.05 c 0.91,0.1 1.72,-0.29 3.26,-1.23 1.17,-0.72 2.77,0.41 3.23,0.78 0.47,0.37 2.28,2.13 1.84,3.37 -0.54,1.53 -0.64,2.36 -0.38,3.08 1.47,1.52 2.78,3.17 3.88,4.91 l 0.12,0.17 c 0.66,0.52 1.49,0.61 2.76,0.68 1.08,0.06 1.59,1.13 1.93,1.84 l 0.11,0.22 c 0.36,0.71 1.1,2.2 0.29,3.31 l -0.16,0.22 c -0.39,0.53 -0.87,1.17 -1.06,1.81 0.07,0.24 0.13,0.48 0.2,0.72 0.37,1.2 0.67,2.41 0.89,3.57 0.48,0.66 1.15,1.09 1.64,1.35 1.21,0.63 1.19,1.62 1.17,3 v 0.18 c -0.01,0.83 -0.03,2.08 -1.22,2.85 -0.34,0.22 -0.81,0.58 -1.18,0.93 -0.05,0.77 -0.11,1.64 -0.2,2.6 0.23,0.27 0.5,0.55 0.75,0.79 0.76,0.74 0.34,2.05 0.2,2.43 -0.28,0.76 -0.53,1.42 -1.54,1.58 l -0.21,0.03 -0.02,0.03 -2.41,0.16 0.08,-0.15 c -0.17,-0.06 -0.35,-0.17 -0.53,-0.35 -0.48,-0.51 -0.69,-1.45 -0.63,-2.93 0,-0.25 -0.02,-0.53 -0.03,-0.8 L 68.06,43.35 C 67.83,40.46 67.34,37.84 66.51,35.11 65.6,32.45 64.35,30.02 62.77,27.87 61.63,26.38 60.35,25.01 58.96,23.81 57.26,22.38 55.32,21.18 53.22,20.24 52.72,20.02 52.25,19.83 51.77,19.64 51.26,19.45 50.74,19.26 50.21,19.1 48.79,18.67 47.3,18.4 45.8,18.29 l -1.06,-0.05 c -0.2,0 -0.4,-0.01 -0.6,-0.01 -3.95,0.03 -7.86,1.2 -11.6,3.49 -4.01,2.64 -6.16,5.93 -6.55,6.57 l -0.08,0.14 c -2.96,5.95 -1.65,9.72 -0.61,11.44 l 0.09,0.15 c 0.07,0.12 0.15,0.23 0.23,0.34 0.13,0.17 0.24,0.28 0.35,0.39 l 0.11,0.12 c 0.64,0.51 1.2,0.93 1.77,1.3 1.7,1.12 3.62,1.46 5.56,0.99 2.3,-0.57 4.99,-3.67 6.38,-7.37 0.06,-0.16 0.13,-0.35 0.22,-0.57 0.236321,-0.729366 0.647443,-1.401119 1.1,-2.02 1.71,-2.5 5.14,-5.3 11.55,-3.38 3.24,0.97 5.92,3.05 7.94,6.18 3.4,5.23 3.9,11.89 1.35,17.82 -2.42,5.63 -7.01,12.85 -15.17,15.56 -0.46,1.68 -0.66,3.88 -0.8,5.37 -0.22,2.5 -1.49,3.81 -3.75,3.89 -3.13,0.11 -5.87,0.02 -8.38,-0.28 -1.13,-0.13 -2.37,-1.66 -2.55,-2.77 -0.19,-1.17 -0.18,-2.25 -0.16,-3.2 0.02,-1.29 0.04,-2.32 -0.43,-3.21 -3.74,-1.09 -7.21,-2.84 -10.31,-5.2 -0.29,-0.22 -0.57,-0.44 -0.84,-0.66 -0.19,-0.07 -0.38,-0.14 -0.57,-0.17 -1.7,-0.32 -3.8,0.22 -5.65,0.71 l -0.51,0.13 C 11.67,64.29 9.92,64.74 8.71,63.08 8.36,62.6 8.01,62.11 7.66,61.62 Z m 0.1,-24.69 c 0.26,0.37 0.48,0.78 0.65,1.23 l 0.05,0.22 c 0.06,1.01 0.16,1.97 0.3,2.85 0.21,1.65 0.52,3.18 0.95,4.68 l 0.12,0.47 c 0.2,3.01 -0.98,5.65 -3.62,8.07 -0.29,0.27 -0.53,1.22 -0.43,1.48 1.24,2.23 2.72,4.33 4.14,6.26 0.52,0.71 1.11,0.7 2.54,0.34 l 0.51,-0.13 c 2.01,-0.52 4.28,-1.12 6.31,-0.73 0.35,0.07 0.66,0.18 0.95,0.29 l 0.2,0.12 c 0.29,0.24 0.58,0.47 0.89,0.71 3.04,2.3 6.44,4 10.11,5.03 l 0.27,0.08 0.15,0.24 c 0.86,1.32 0.83,2.76 0.81,4.28 -0.02,0.93 -0.03,1.89 0.14,2.93 0.1,0.6 0.93,1.49 1.25,1.53 2.42,0.29 5.09,0.37 8.15,0.27 1.26,-0.04 2.13,-0.49 2.31,-2.52 v 0 c 0.15,-1.67 0.38,-4.18 0.97,-6.05 l 0.12,-0.37 0.37,-0.12 c 7.85,-2.44 12.28,-9.42 14.62,-14.84 2.35,-5.47 1.89,-11.6 -1.23,-16.41 -1.84,-2.81 -4.23,-4.7 -7.12,-5.56 -6.87,-2.06 -9.73,1.95 -10.82,4.52 l -0.06,0.14 c -0.06,0.14 -0.11,0.27 -0.15,0.39 -1.59,4.21 -4.64,7.62 -7.43,8.31 -2.35,0.58 -4.68,0.17 -6.74,-1.19 -0.61,-0.4 -1.22,-0.85 -1.92,-1.41 L 24.93,41.82 C 24.79,41.67 24.64,41.52 24.52,41.36 24.36,41.15 24.26,41 24.16,40.85 l -0.1,-0.15 c -1.22,-2 -2.75,-6.32 0.55,-12.94 l 0.1,-0.17 c 0.46,-0.74 2.77,-4.28 7.06,-7.11 4,-2.44 8.16,-3.69 12.4,-3.72 0.22,0 0.43,0 0.65,0.01 h 0.26 c 0.12,0 0.24,0.01 0.36,0.02 0.12,0 0.23,0.02 0.35,0.02 h 0.16 c 1.61,0.13 3.2,0.42 4.73,0.88 0.57,0.17 1.11,0.37 1.65,0.57 0.52,0.2 1.01,0.4 1.5,0.61 2.27,1.01 4.32,2.29 6.14,3.81 1.47,1.27 2.83,2.72 4.04,4.31 1.68,2.28 3.01,4.85 3.97,7.68 0.87,2.86 1.38,5.59 1.62,8.61 l 0.02,0.36 c 0.01,0.3 0.03,0.6 0.03,0.9 -0.06,1.57 0.22,1.88 0.22,1.88 -0.01,-0.02 0,-0.03 0.03,-0.03 v 0 h 0.3 0.27 l 0.43,-0.04 v 0 l 0.74,-0.1 c 0.09,-0.01 0.12,-0.03 0.12,-0.03 0.05,-0.05 0.16,-0.35 0.25,-0.59 0.15,-0.39 0.17,-0.78 0.13,-0.88 -0.33,-0.31 -0.74,-0.72 -1.05,-1.16 l -0.16,-0.23 0.03,-0.28 c 0.11,-1.17 0.18,-2.21 0.23,-3.07 v -0.27 l 0.2,-0.26 c 0.49,-0.54 1.19,-1.07 1.64,-1.36 0.4,-0.26 0.52,-0.61 0.53,-1.61 V 36.33 C 73.58,34.96 73.54,34.86 73.2,34.68 72.53,34.33 71.6,33.73 70.93,32.72 L 70.84,32.59 70.81,32.44 C 70.6,31.29 70.3,30.08 69.92,28.86 69.83,28.54 69.75,28.24 69.66,27.93 l -0.05,-0.18 0.04,-0.19 c 0.22,-0.99 0.86,-1.85 1.37,-2.54 l 0.16,-0.21 c 0.27,-0.38 -0.23,-1.38 -0.41,-1.76 L 70.65,22.8 C 70.54,22.56 70.19,21.82 69.99,21.81 68.46,21.72 67.3,21.6 66.27,20.72 l -0.12,-0.14 -0.23,-0.32 -0.03,-0.05 c -1.05,-1.65 -2.32,-3.25 -3.76,-4.72 l -0.1,-0.1 -0.05,-0.13 c -0.56,-1.29 -0.3,-2.6 0.29,-4.29 C 62.24,10.75 61.53,9.76 60.92,9.28 60.19,8.71 59.54,8.54 59.39,8.6 57.8,9.57 56.55,10.25 55.02,10.02 L 54.56,9.83 C 51.43,8.15 48.8,7.37 47.52,7.06 L 46.94,6.89 46.81,6.78 C 45.92,5.99 45.43,4.86 45.4,3.51 45.37,2.2 44.9,1.78 43.32,1.61 L 43.13,1.59 C 41.43,1.41 40.66,1.39 40.15,2.81 39.63,4.24 38.74,5.3 37.49,5.95 L 37.36,6.02 37.22,6.04 C 36.57,6.11 35.88,6.21 35.16,6.32 33.74,6.53 32.35,6.85 30.88,7.29 L 30.77,7.32 C 29.4,7.72 28.11,8.18 26.81,8.73 L 26.57,8.82 26.38,8.84 C 24.97,8.83 23.75,8.21 22.75,7.01 21.77,5.84 21.11,6.13 19.59,7.2 l -0.33,0.23 c -1.43,0.99 -2.26,1.68 -1.77,2.94 0.48,1.24 0.92,2.7 0.53,4.16 l -0.05,0.2 -0.15,0.14 c -0.38,0.41 -0.7,0.78 -1.01,1.14 -0.93,1.06 -1.69,1.99 -2.31,2.84 -0.88,1.21 -1.67,2.45 -2.36,3.72 l -0.23,0.38 -0.11,0.09 c -1.7,1.32 -3.8,1.49 -5.82,1.55 -2.0066667,0.06 -3.2633333,1.006667 -3.77,2.84 -0.27,0.96 -0.46,2 -0.59,3.12 -0.24,2.12 0.23,3.02 1.82,3.45 0.91,0.25 2.41,1.15 2.99,1.55 0.57,0.39 1.04,0.85 1.41,1.37 z m 18.56,-29.08 0.13,0.2 -0.13,-0.3 v 0.09 z"
         id="path6"
         sodipodi:nodetypes="cccccccccccccccccccccccccccccccccccccccccccccccccccccscccscccccccccccccccccccccccccccccccccccccccccccccccccccccccccccccccccccccccsscccccccsccccccsccccccscscccccccccccsccccccccccccccccccccccccccccccccccccccccccccccccccccccccccccccccccccccccccccccccccc" />
      <polygon
         class="cls-1"
         points="70.95 47.81 71.04 47.06 71.04 47.06 71.04 47.06 71.04 47.06 71 46.32 71.05 47.05 71.13 46.32 71.82 46.4 71.76 47.79 71.06 47.81 71.04 47.08 70.95 47.81"
         id="polygon8" />
    </g>
  </g>
</svg>
