<?xml version="1.0" encoding="UTF-8" standalone="no"?>
<svg
   xmlns:dc="http://purl.org/dc/elements/1.1/"
   xmlns:cc="http://creativecommons.org/ns#"
   xmlns:rdf="http://www.w3.org/1999/02/22-rdf-syntax-ns#"
   xmlns:svg="http://www.w3.org/2000/svg"
   xmlns="http://www.w3.org/2000/svg"
   xmlns:sodipodi="http://sodipodi.sourceforge.net/DTD/sodipodi-0.dtd"
   xmlns:inkscape="http://www.inkscape.org/namespaces/inkscape"
   id="Capa_2"
   data-name="Capa 2"
   viewBox="0 0 54.869996 54.83"
   version="1.1"
   sodipodi:docname="gear_serv.svg"
   inkscape:version="1.0.2 (e86c870879, 2021-01-15, custom)"
   width="54.869999"
   height="54.830002">
  <metadata
     id="metadata20">
    <rdf:RDF>
      <cc:Work
         rdf:about="">
        <dc:format>image/svg+xml</dc:format>
        <dc:type
           rdf:resource="http://purl.org/dc/dcmitype/StillImage" />
        <dc:title />
      </cc:Work>
    </rdf:RDF>
  </metadata>
  <sodipodi:namedview
     pagecolor="#ffffff"
     bordercolor="#666666"
     borderopacity="1"
     objecttolerance="10"
     gridtolerance="10"
     guidetolerance="10"
     inkscape:pageopacity="0"
     inkscape:pageshadow="2"
     inkscape:window-width="1920"
     inkscape:window-height="1017"
     id="namedview18"
     showgrid="false"
     inkscape:zoom="6.2071749"
     inkscape:cx="51.899643"
     inkscape:cy="19.847283"
     inkscape:window-x="-8"
     inkscape:window-y="-8"
     inkscape:window-maximized="1"
     inkscape:current-layer="g14"
     inkscape:document-rotation="0" />
  <defs
     id="defs4">
    <style
       id="style2">
      .cls-1 {
        fill: #fff;
      }
    </style>
  </defs>
  <g
     id="g14"
     style="fill:#000000">
    <g
       id="g863"
       transform="translate(-20.960848,0.2278353)"
       style="fill:#ffffff">
      <path
         class="cls-1"
         d="m 75.82,27.5 c 0,0.97 0,1.94 0,2.91 -0.01,1.35 -0.67,2.1 -1.98,2.33 -1.89,0.32 -3.78,0.65 -5.67,0.95 -0.37,0.06 -0.56,0.2 -0.68,0.56 -0.17,0.52 -0.36,1.04 -0.63,1.51 -0.33,0.58 -0.29,1.02 0.13,1.57 1.09,1.43 2.1,2.92 3.14,4.38 0.74,1.05 0.66,2.08 -0.26,2.99 -1.43,1.42 -2.87,2.84 -4.32,4.25 -0.83,0.81 -1.85,0.9 -2.8,0.23 -1.6,-1.12 -3.2,-2.26 -4.79,-3.41 -0.31,-0.23 -0.55,-0.29 -0.92,-0.1 -0.57,0.3 -1.17,0.55 -1.79,0.74 -0.44,0.13 -0.6,0.37 -0.67,0.8 -0.3,1.89 -0.63,3.78 -0.96,5.67 -0.21,1.18 -0.97,1.84 -2.18,1.85 -2.06,0 -4.12,0 -6.18,-0.03 -1.13,-0.01 -1.91,-0.65 -2.12,-1.78 -0.34,-1.85 -0.66,-3.7 -0.94,-5.55 -0.09,-0.55 -0.25,-0.91 -0.85,-1.06 -0.52,-0.13 -1.04,-0.35 -1.51,-0.62 -0.49,-0.29 -0.83,-0.18 -1.25,0.12 -1.47,1.04 -2.95,2.05 -4.43,3.07 -1.23,0.85 -2.18,0.75 -3.23,-0.32 -1.33,-1.35 -2.67,-2.7 -4,-4.06 -0.96,-0.98 -1.05,-1.97 -0.25,-3.09 1.11,-1.54 2.22,-3.08 3.35,-4.61 0.21,-0.28 0.22,-0.5 0.07,-0.82 -0.31,-0.68 -0.56,-1.39 -0.87,-2.06 -0.08,-0.18 -0.3,-0.38 -0.49,-0.42 -1.8,-0.35 -3.61,-0.68 -5.42,-0.99 -1.68,-0.29 -2.25,-0.95 -2.24,-2.65 0,-1.82 0.01,-3.63 0.03,-5.45 0.01,-1.59 0.6,-2.28 2.17,-2.54 1.81,-0.3 3.62,-0.59 5.44,-0.86 0.35,-0.05 0.52,-0.2 0.64,-0.52 0.24,-0.66 0.51,-1.32 0.82,-1.95 0.18,-0.36 0.14,-0.61 -0.09,-0.93 -1.06,-1.5 -2.1,-3.01 -3.15,-4.52 -0.85,-1.23 -0.76,-2.17 0.31,-3.23 1.33,-1.32 2.67,-2.64 4.01,-3.95 1.05,-1.03 2,-1.11 3.19,-0.26 1.49,1.07 2.99,2.14 4.46,3.24 0.34,0.25 0.61,0.29 0.98,0.09 C 40.41,8.71 40.95,8.44 41.51,8.31 42.14,8.16 42.32,7.8 42.42,7.23 42.72,5.44 43.06,3.65 43.39,1.87 43.65,0.63 44.42,0 45.66,0 c 2,0 4,0.01 6,0.03 1.28,0 2.07,0.69 2.28,1.97 0.3,1.83 0.6,3.66 0.87,5.5 0.07,0.45 0.21,0.71 0.67,0.86 0.61,0.19 1.21,0.45 1.79,0.74 0.36,0.18 0.62,0.14 0.93,-0.09 1.5,-1.09 3.03,-2.15 4.54,-3.23 1.13,-0.81 2.12,-0.74 3.09,0.23 1.38,1.39 2.76,2.78 4.14,4.17 0.94,0.96 1.01,1.97 0.24,3.05 -1.1,1.55 -2.18,3.1 -3.3,4.64 -0.23,0.32 -0.25,0.58 -0.09,0.93 0.29,0.62 0.49,1.28 0.79,1.9 0.11,0.22 0.38,0.47 0.62,0.51 1.86,0.35 3.73,0.66 5.6,0.98 1.4,0.24 2.03,0.98 2.03,2.4 0,0.97 0,1.94 0,2.91 -0.01,0 -0.03,0 -0.04,0 z M 30.96,42.7 c 0.56,0.52 1.12,1.01 1.64,1.54 0.27,0.27 0.45,0.29 0.76,0.07 1.38,-0.98 2.79,-1.93 4.18,-2.9 0.87,-0.61 1.69,-0.62 2.66,-0.14 1.31,0.65 2.68,1.23 4.06,1.7 1.06,0.36 1.66,0.97 1.83,2.07 0.25,1.68 0.57,3.34 0.83,5.02 0.05,0.33 0.18,0.45 0.5,0.44 0.63,-0.01 1.25,-0.02 1.88,0.01 0.38,0.02 0.48,-0.16 0.53,-0.49 0.27,-1.67 0.58,-3.34 0.84,-5.02 0.17,-1.09 0.78,-1.67 1.82,-2.01 1.3,-0.42 2.6,-0.9 3.8,-1.53 1.14,-0.6 2.09,-0.62 3.13,0.18 1.41,1.07 2.89,2.06 4.31,3.06 0.67,-0.66 1.29,-1.28 1.95,-1.93 -0.15,-0.23 -0.32,-0.48 -0.49,-0.72 -0.92,-1.3 -1.85,-2.6 -2.77,-3.9 -0.56,-0.79 -0.53,-1.57 -0.12,-2.45 0.66,-1.42 1.26,-2.87 1.82,-4.34 0.32,-0.83 0.82,-1.38 1.69,-1.55 0.69,-0.13 1.39,-0.24 2.09,-0.36 1.22,-0.21 2.45,-0.42 3.72,-0.64 0,-0.75 -0.04,-1.44 0.01,-2.12 0.04,-0.5 -0.14,-0.66 -0.61,-0.73 C 69.34,25.7 67.68,25.4 66,25.13 65.04,24.97 64.5,24.4 64.17,23.5 c -0.55,-1.49 -1.15,-2.96 -1.8,-4.41 -0.38,-0.84 -0.39,-1.59 0.14,-2.34 0.55,-0.78 1.1,-1.55 1.65,-2.32 0.56,-0.78 1.12,-1.57 1.73,-2.44 -0.56,-0.53 -1.11,-1.01 -1.61,-1.53 -0.29,-0.3 -0.48,-0.29 -0.81,-0.06 -1.37,1 -2.77,1.96 -4.15,2.94 -0.81,0.57 -1.6,0.56 -2.5,0.13 C 55.43,12.8 53.99,12.2 52.55,11.65 51.63,11.3 51.05,10.76 50.89,9.77 50.62,8.08 50.33,6.39 50.08,4.69 50.03,4.33 49.9,4.21 49.55,4.22 48.94,4.24 48.34,4.24 47.73,4.21 47.35,4.19 47.21,4.33 47.14,4.71 46.87,6.3 46.55,7.88 46.29,9.48 c -0.2,1.19 -0.82,1.88 -2.01,2.2 -1.08,0.29 -2.22,0.61 -3.15,1.21 -1.63,1.05 -2.95,0.87 -4.37,-0.36 -1.11,-0.96 -2.37,-1.73 -3.56,-2.59 -0.65,0.68 -1.26,1.31 -1.91,1.99 0.09,0.14 0.21,0.32 0.34,0.5 0.92,1.33 1.83,2.66 2.75,3.99 0.6,0.85 0.58,1.67 0.12,2.61 -0.63,1.28 -1.24,2.59 -1.67,3.94 -0.39,1.22 -1.08,1.86 -2.33,2.02 -1.56,0.21 -3.11,0.48 -4.66,0.75 -0.18,0.03 -0.48,0.19 -0.49,0.31 -0.04,0.84 -0.02,1.68 -0.02,2.53 1.79,0.32 3.53,0.67 5.28,0.94 1.19,0.19 1.79,0.86 2.15,1.99 0.42,1.3 0.93,2.58 1.56,3.79 0.56,1.09 0.56,1.99 -0.18,2.97 -1.07,1.41 -2.09,2.87 -3.21,4.42 z"
         id="path8"
         style="fill:#ffffff" />
      <path
         class="cls-1"
         d="M 48.36,38 C 42.67,38.07 37.9,33.36 37.84,27.61 37.78,21.71 42.41,16.97 48.3,16.9 54.09,16.83 58.88,21.51 58.94,27.3 59,33.26 54.39,37.92 48.37,38 Z m 6.39,-10.55 c 0,-3.54 -2.89,-6.36 -6.49,-6.35 -3.38,0.01 -6.24,2.93 -6.23,6.36 0,3.55 2.89,6.37 6.48,6.35 3.38,-0.02 6.24,-2.94 6.23,-6.36 z"
         id="path10"
         style="fill:#ffffff" />
    </g>
  </g>
</svg>
