<?xml version="1.0" encoding="UTF-8" standalone="no"?>
<svg
   xmlns:dc="http://purl.org/dc/elements/1.1/"
   xmlns:cc="http://creativecommons.org/ns#"
   xmlns:rdf="http://www.w3.org/1999/02/22-rdf-syntax-ns#"
   xmlns:svg="http://www.w3.org/2000/svg"
   xmlns="http://www.w3.org/2000/svg"
   xmlns:sodipodi="http://sodipodi.sourceforge.net/DTD/sodipodi-0.dtd"
   xmlns:inkscape="http://www.inkscape.org/namespaces/inkscape"
   id="Capa_2"
   data-name="Capa 2"
   viewBox="0 0 58.07 59.63"
   version="1.1"
   sodipodi:docname="gear_2.svg"
   inkscape:version="1.0.2 (e86c870879, 2021-01-15, custom)">
  <metadata
     id="metadata12">
    <rdf:RDF>
      <cc:Work
         rdf:about="">
        <dc:format>image/svg+xml</dc:format>
        <dc:type
           rdf:resource="http://purl.org/dc/dcmitype/StillImage" />
      </cc:Work>
    </rdf:RDF>
  </metadata>
  <sodipodi:namedview
     pagecolor="#ffffff"
     bordercolor="#666666"
     borderopacity="1"
     objecttolerance="10"
     gridtolerance="10"
     guidetolerance="10"
     inkscape:pageopacity="0"
     inkscape:pageshadow="2"
     inkscape:window-width="1920"
     inkscape:window-height="1017"
     id="namedview10"
     showgrid="false"
     inkscape:zoom="14.25457"
     inkscape:cx="15.578076"
     inkscape:cy="43.575941"
     inkscape:window-x="-8"
     inkscape:window-y="-8"
     inkscape:window-maximized="1"
     inkscape:current-layer="Capa_1-2" />
  <defs
     id="defs4">
    <style
       id="style2">
      .cls-1 {
        fill: none;
        stroke: #000;
        stroke-miterlimit: 10;
        stroke-width: 2px;
      }
    </style>
  </defs>
  <g
     id="Capa_1-2"
     data-name="Capa 1">
    <path
       class="cls-1"
       d="M 9.45,50.54 C 10.03,48.3 10.39,46.53 8.83,44.7 7.56,43.21 6.47,41.94 4.36,42.07 3.07,42.14 2.31,41.5 2.14,40.18 2.09,39.76 1.91,39.34 1.72,38.96 0.56,36.65 0.69,34.76 3.03,33.13 4.35,32.21 4.15,27.51 2.98,26.34 2.54,25.9 1.94,25.56 1.67,25.05 1.32,24.38 1.13,23.59 1.08,22.83 1.05,22.31 1.44,21.79 1.54,21.25 1.99,18.66 3.16,16.99 6.14,17.3 6.57,17.34 7.2,16.93 7.5,16.54 9.1,14.53 10.9,12.58 9.68,9.61 9.5,9.17 9.98,8.3 10.38,7.82 10.84,7.27 11.63,7.01 12.14,6.49 13.86,4.75 15.53,4.54 17.6,6.06 c 1.51,1.11 5.81,-0.47 6.69,-2.16 0.5,-0.96 0.99,-2.53 1.7,-2.66 1.97,-0.36 4.07,-0.28 6.06,0 0.56,0.08 1,1.42 1.4,2.22 1.18,2.38 5.24,3.78 7.47,2.32 1.67,-1.09 2.98,-1.06 4.36,0.3 0.3,0.3 0.66,0.58 1.04,0.76 2,0.95 2.41,2.37 1.79,4.48 -0.66,2.25 2.15,5.95 4.5,6.05 1.96,0.08 3.27,0.72 3.5,2.84 0.05,0.42 0.18,0.86 0.39,1.23 1.04,1.87 0.61,3.23 -1.08,4.57 -1.9,1.5 -1.91,5.98 -0.06,7.53 1.57,1.31 2.3,2.62 1.17,4.55 -0.27,0.47 -0.41,1.04 -0.49,1.58 -0.24,1.77 -1.32,2.36 -2.99,2.53 -3.1,0.32 -5.52,3.59 -4.85,6.57 0.38,1.69 0.25,3 -1.54,3.73 -0.28,0.11 -0.55,0.31 -0.75,0.53 -1.73,1.89 -3.5,2.05 -5.59,0.46 -1.15,-0.87 -5.92,0.3 -6.26,1.63 -0.96,3.75 -3.64,3.55 -6.55,3.47 -1.46,-0.04 -2.31,-0.38 -2.69,-1.82 -0.45,-1.7 -1.65,-2.5 -3.32,-3.05 -1.94,-0.64 -3.66,-0.85 -5.33,0.53 C 15.26,55 14.45,54.91 13.54,54.14 12.51,53.27 11.33,52.57 10.28,51.71 9.920643,51.387998 9.6708167,50.908932 9.45,50.54 Z M 29.05,48.6 C 39.56,48.57 47.91,40.12 47.86,29.55 47.81,19.3 39.32,10.98 28.93,11 18.59,11.02 10.11,19.43 10.11,29.68 c 0,10.52 8.44,18.95 18.94,18.92 z"
       id="path6"
       sodipodi:nodetypes="ccccccsccccccccccccccccccccccccccccccccccccccccsc" />
  </g>
</svg>
