<?xml version="1.0" encoding="UTF-8"?>
<svg id="Capa_2" data-name="Capa 2" xmlns="http://www.w3.org/2000/svg" xmlns:xlink="http://www.w3.org/1999/xlink" viewBox="0 0 449.14 128.82">
  <defs>
    <style>
      .cls-1 {
        fill: url(#Degradado_sin_nombre_12-9);
      }

      .cls-2 {
        fill: url(#Degradado_sin_nombre_12-17);
      }

      .cls-3 {
        fill: url(#Degradado_sin_nombre_12-4);
      }

      .cls-4 {
        fill: url(#Degradado_sin_nombre_12-13);
      }

      .cls-5 {
        fill: url(#Degradado_sin_nombre_12-28);
      }

      .cls-6 {
        fill: url(#Degradado_sin_nombre_12-2);
      }

      .cls-7 {
        fill: url(#Degradado_sin_nombre_12-30);
      }

      .cls-8 {
        fill: url(#Degradado_sin_nombre_12-16);
      }

      .cls-9 {
        fill: url(#Degradado_sin_nombre_12-11);
      }

      .cls-10 {
        fill: url(#Degradado_sin_nombre_12-21);
      }

      .cls-11 {
        fill: url(#Degradado_sin_nombre_12-35);
      }

      .cls-12 {
        fill: url(#Degradado_sin_nombre_12-31);
      }

      .cls-13 {
        fill: url(#Degradado_sin_nombre_12-10);
      }

      .cls-14 {
        fill: url(#Degradado_sin_nombre_12-27);
      }

      .cls-15 {
        fill: url(#Degradado_sin_nombre_12-19);
      }

      .cls-16 {
        fill: url(#Degradado_sin_nombre_12-34);
      }

      .cls-17 {
        fill: url(#Degradado_sin_nombre_12-6);
      }

      .cls-18 {
        fill: url(#Degradado_sin_nombre_12-33);
      }

      .cls-19 {
        fill: url(#Degradado_sin_nombre_12-26);
      }

      .cls-20 {
        fill: url(#Degradado_sin_nombre_12-22);
      }

      .cls-21 {
        fill: url(#Degradado_sin_nombre_12-32);
      }

      .cls-22 {
        fill: url(#Degradado_sin_nombre_12-7);
      }

      .cls-23 {
        fill: url(#Degradado_sin_nombre_12-5);
      }

      .cls-24 {
        fill: url(#Degradado_sin_nombre_12-8);
      }

      .cls-25 {
        fill: url(#Degradado_sin_nombre_12-36);
      }

      .cls-26 {
        fill: url(#Degradado_sin_nombre_12-23);
      }

      .cls-27 {
        fill: url(#Degradado_sin_nombre_12-18);
      }

      .cls-28 {
        fill: url(#Degradado_sin_nombre_12-20);
      }

      .cls-29 {
        fill: url(#Degradado_sin_nombre_12-12);
      }

      .cls-30 {
        fill: url(#Degradado_sin_nombre_12-29);
      }

      .cls-31 {
        fill: url(#Degradado_sin_nombre_12-3);
      }

      .cls-32 {
        fill: url(#Degradado_sin_nombre_12-24);
      }

      .cls-33 {
        fill: url(#Degradado_sin_nombre_12-25);
      }

      .cls-34 {
        fill: url(#Degradado_sin_nombre_12);
      }

      .cls-35 {
        fill: url(#Degradado_sin_nombre_12-15);
      }

      .cls-36 {
        fill: url(#Degradado_sin_nombre_12-14);
      }
    </style>
    <linearGradient id="Degradado_sin_nombre_12" data-name="Degradado sin nombre 12" x1="167.32" y1="7.87" x2="167.32" y2="145.1" gradientUnits="userSpaceOnUse">
      <stop offset="0" stop-color="#1d71b8"/>
      <stop offset=".33" stop-color="#1e3fba"/>
      <stop offset="1" stop-color="#006"/>
    </linearGradient>
    <linearGradient id="Degradado_sin_nombre_12-2" data-name="Degradado sin nombre 12" x1="181.72" y1="7.87" x2="181.72" y2="145.1" xlink:href="#Degradado_sin_nombre_12"/>
    <linearGradient id="Degradado_sin_nombre_12-3" data-name="Degradado sin nombre 12" x1="194.67" y1="7.87" x2="194.67" y2="145.1" xlink:href="#Degradado_sin_nombre_12"/>
    <linearGradient id="Degradado_sin_nombre_12-4" data-name="Degradado sin nombre 12" x1="205.49" y1="7.87" x2="205.49" y2="145.1" xlink:href="#Degradado_sin_nombre_12"/>
    <linearGradient id="Degradado_sin_nombre_12-5" data-name="Degradado sin nombre 12" x1="215.27" y1="7.87" x2="215.27" y2="145.1" xlink:href="#Degradado_sin_nombre_12"/>
    <linearGradient id="Degradado_sin_nombre_12-6" data-name="Degradado sin nombre 12" x1="226.65" y1="7.87" x2="226.65" y2="145.1" xlink:href="#Degradado_sin_nombre_12"/>
    <linearGradient id="Degradado_sin_nombre_12-7" data-name="Degradado sin nombre 12" x1="240.17" y1="7.87" x2="240.17" y2="145.1" xlink:href="#Degradado_sin_nombre_12"/>
    <linearGradient id="Degradado_sin_nombre_12-8" data-name="Degradado sin nombre 12" x1="250.05" y1="7.87" x2="250.05" y2="145.1" xlink:href="#Degradado_sin_nombre_12"/>
    <linearGradient id="Degradado_sin_nombre_12-9" data-name="Degradado sin nombre 12" x1="260.48" x2="260.48" y2="145.1" xlink:href="#Degradado_sin_nombre_12"/>
    <linearGradient id="Degradado_sin_nombre_12-10" data-name="Degradado sin nombre 12" x1="260.94" y1="7.87" x2="260.94" y2="145.1" xlink:href="#Degradado_sin_nombre_12"/>
    <linearGradient id="Degradado_sin_nombre_12-11" data-name="Degradado sin nombre 12" x1="274.4" y1="7.87" x2="274.4" y2="145.1" xlink:href="#Degradado_sin_nombre_12"/>
    <linearGradient id="Degradado_sin_nombre_12-12" data-name="Degradado sin nombre 12" x1="292.9" y1="7.87" x2="292.9" y2="145.1" xlink:href="#Degradado_sin_nombre_12"/>
    <linearGradient id="Degradado_sin_nombre_12-13" data-name="Degradado sin nombre 12" x1="311.89" y1="7.87" x2="311.89" y2="145.1" xlink:href="#Degradado_sin_nombre_12"/>
    <linearGradient id="Degradado_sin_nombre_12-14" data-name="Degradado sin nombre 12" x1="325.87" y1="7.87" x2="325.87" y2="145.1" xlink:href="#Degradado_sin_nombre_12"/>
    <linearGradient id="Degradado_sin_nombre_12-15" data-name="Degradado sin nombre 12" x1="339.79" y1="7.87" x2="339.79" y2="145.1" xlink:href="#Degradado_sin_nombre_12"/>
    <linearGradient id="Degradado_sin_nombre_12-16" data-name="Degradado sin nombre 12" x1="350.9" y1="7.87" x2="350.9" y2="145.1" xlink:href="#Degradado_sin_nombre_12"/>
    <linearGradient id="Degradado_sin_nombre_12-17" data-name="Degradado sin nombre 12" x1="360.43" y1="7.87" x2="360.43" y2="145.1" xlink:href="#Degradado_sin_nombre_12"/>
    <linearGradient id="Degradado_sin_nombre_12-18" data-name="Degradado sin nombre 12" x1="370.56" y1="7.87" x2="370.56" y2="145.1" xlink:href="#Degradado_sin_nombre_12"/>
    <linearGradient id="Degradado_sin_nombre_12-19" data-name="Degradado sin nombre 12" x1="381.64" y1="7.87" x2="381.64" y2="145.1" xlink:href="#Degradado_sin_nombre_12"/>
    <linearGradient id="Degradado_sin_nombre_12-20" data-name="Degradado sin nombre 12" x1="394.5" y1="7.87" x2="394.5" y2="145.1" xlink:href="#Degradado_sin_nombre_12"/>
    <linearGradient id="Degradado_sin_nombre_12-21" data-name="Degradado sin nombre 12" x1="408.09" y1="7.87" x2="408.09" y2="145.1" xlink:href="#Degradado_sin_nombre_12"/>
    <linearGradient id="Degradado_sin_nombre_12-22" data-name="Degradado sin nombre 12" x1="417.96" y1="7.87" x2="417.96" y2="145.1" xlink:href="#Degradado_sin_nombre_12"/>
    <linearGradient id="Degradado_sin_nombre_12-23" data-name="Degradado sin nombre 12" x1="428.86" y1="7.87" x2="428.86" y2="145.1" xlink:href="#Degradado_sin_nombre_12"/>
    <linearGradient id="Degradado_sin_nombre_12-24" data-name="Degradado sin nombre 12" x1="428.39" y1="7.87" x2="428.39" y2="145.1" xlink:href="#Degradado_sin_nombre_12"/>
    <linearGradient id="Degradado_sin_nombre_12-25" data-name="Degradado sin nombre 12" x1="442.32" y1="7.87" x2="442.32" y2="145.1" xlink:href="#Degradado_sin_nombre_12"/>
    <linearGradient id="Degradado_sin_nombre_12-26" data-name="Degradado sin nombre 12" x1="84.49" y1="7.87" x2="84.49" y2="145.1" xlink:href="#Degradado_sin_nombre_12"/>
    <linearGradient id="Degradado_sin_nombre_12-27" data-name="Degradado sin nombre 12" x1="180.49" y1="7.87" x2="180.49" y2="145.1" xlink:href="#Degradado_sin_nombre_12"/>
    <linearGradient id="Degradado_sin_nombre_12-28" data-name="Degradado sin nombre 12" x1="223.3" y1="7.87" x2="223.3" y2="145.1" xlink:href="#Degradado_sin_nombre_12"/>
    <linearGradient id="Degradado_sin_nombre_12-29" data-name="Degradado sin nombre 12" x1="356.67" y1="7.87" x2="356.67" y2="145.1" xlink:href="#Degradado_sin_nombre_12"/>
    <linearGradient id="Degradado_sin_nombre_12-30" data-name="Degradado sin nombre 12" x1="419.07" y1="7.87" x2="419.07" y2="145.1" xlink:href="#Degradado_sin_nombre_12"/>
    <linearGradient id="Degradado_sin_nombre_12-31" data-name="Degradado sin nombre 12" x1="263.46" x2="263.46" y2="145.1" xlink:href="#Degradado_sin_nombre_12"/>
    <linearGradient id="Degradado_sin_nombre_12-32" data-name="Degradado sin nombre 12" x1="292.61" y1="7.87" x2="292.61" y2="145.1" xlink:href="#Degradado_sin_nombre_12"/>
    <linearGradient id="Degradado_sin_nombre_12-33" data-name="Degradado sin nombre 12" x1="85.76" y1="7.87" x2="85.76" y2="145.1" xlink:href="#Degradado_sin_nombre_12"/>
    <linearGradient id="Degradado_sin_nombre_12-34" data-name="Degradado sin nombre 12" x1="82.26" y1="7.87" x2="82.26" y2="145.1" xlink:href="#Degradado_sin_nombre_12"/>
    <linearGradient id="Degradado_sin_nombre_12-35" data-name="Degradado sin nombre 12" x1="78.7" y1="7.87" x2="78.7" y2="145.1" xlink:href="#Degradado_sin_nombre_12"/>
    <linearGradient id="Degradado_sin_nombre_12-36" data-name="Degradado sin nombre 12" x1="224.57" y1="7.87" x2="224.57" y2="145.1" xlink:href="#Degradado_sin_nombre_12"/>
  </defs>
  <g id="Capa_1-2" data-name="Capa 1">
    <g>
      <polygon class="cls-34" points="171.32 107.82 167.33 115.94 163.31 107.82 163.15 107.82 161.73 117.72 162.69 117.72 163.66 110.59 167.2 117.72 167.45 117.72 170.95 110.64 171.93 117.72 172.9 117.72 171.48 107.82 171.32 107.82"/>
      <path class="cls-6" d="M181.63,107.82l-4.68,9.9h1.1l1.54-3.26h4.26l1.56,3.26h1.07l-4.62-9.9h-.24Zm-1.58,5.69l1.7-3.58,1.69,3.58h-3.38Z"/>
      <polygon class="cls-31" points="197.58 115.41 190.99 107.82 190.78 107.82 190.78 117.72 191.8 117.72 191.8 110.22 198.33 117.72 198.56 117.72 198.56 107.82 197.58 107.82 197.58 115.41"/>
      <polygon class="cls-3" points="202.78 108.79 204.99 108.79 204.99 117.72 206 117.72 206 108.79 208.21 108.79 208.21 107.82 202.78 107.82 202.78 108.79"/>
      <polygon class="cls-23" points="212.44 117.72 218.07 117.72 218.07 116.75 213.43 116.75 213.43 112.86 218.07 112.86 218.07 111.89 213.43 111.89 213.43 108.79 218.11 108.79 218.11 107.82 212.44 107.82 212.44 117.72"/>
      <polygon class="cls-17" points="229.57 115.41 222.98 107.82 222.76 107.82 222.76 117.72 223.79 117.72 223.79 110.22 230.32 117.72 230.54 117.72 230.54 107.82 229.57 107.82 229.57 115.41"/>
      <path class="cls-22" d="M238.5,109.12c.67-.38,1.4-.57,2.19-.57,.72,0,1.39,.14,1.99,.43,.6,.29,1.12,.71,1.55,1.28l.78-.6c-.48-.66-1.09-1.17-1.83-1.54-.74-.37-1.58-.55-2.5-.55-1.53,0-2.8,.49-3.82,1.48-1.02,.99-1.52,2.21-1.52,3.66s.42,2.55,1.26,3.53c1,1.15,2.37,1.73,4.1,1.73,.91,0,1.74-.17,2.47-.51,.74-.34,1.35-.83,1.85-1.46l-.78-.59c-.93,1.09-2.09,1.63-3.48,1.63-1.26,0-2.3-.4-3.13-1.21-.83-.81-1.24-1.81-1.24-3.02,0-.8,.18-1.52,.56-2.16,.37-.64,.89-1.15,1.56-1.53Z"/>
      <rect class="cls-24" x="249.55" y="107.82" width=".99" height="9.9"/>
      <path class="cls-1" d="M260.42,107.57c-.92,0-1.78,.23-2.58,.69-.79,.46-1.42,1.1-1.88,1.91-.46,.81-.69,1.69-.69,2.64,0,1.43,.5,2.64,1.52,3.65,1.01,1.01,2.25,1.51,3.72,1.51s2.68-.5,3.69-1.51c1.01-1.01,1.51-2.24,1.51-3.69s-.51-2.69-1.52-3.69c-1.01-1-2.26-1.5-3.76-1.5Zm3.71,7.35c-.37,.65-.88,1.16-1.53,1.53-.65,.37-1.37,.56-2.13,.56-1.15,0-2.13-.41-2.95-1.22-.82-.81-1.22-1.8-1.22-2.98,0-.79,.18-1.52,.55-2.16,.37-.65,.88-1.16,1.54-1.54,.66-.38,1.35-.57,2.08-.57s1.45,.19,2.12,.57c.66,.38,1.18,.89,1.55,1.53,.37,.64,.55,1.35,.55,2.13s-.18,1.51-.55,2.16Z"/>
      <polygon class="cls-13" points="260.95 104.97 259.49 107.04 260.41 107.04 262.4 104.97 260.95 104.97"/>
      <polygon class="cls-9" points="277.32 115.41 270.73 107.82 270.51 107.82 270.51 117.72 271.53 117.72 271.53 110.22 278.07 117.72 278.29 117.72 278.29 107.82 277.32 107.82 277.32 115.41"/>
      <polygon class="cls-29" points="292.92 111.9 290.39 107.82 289.25 107.82 292.44 112.99 292.44 117.72 293.42 117.72 293.42 112.99 296.56 107.82 295.41 107.82 292.92 111.9"/>
      <path class="cls-4" d="M310.22,109.12c.67-.38,1.4-.57,2.19-.57,.72,0,1.39,.14,1.99,.43,.6,.29,1.12,.71,1.55,1.28l.78-.6c-.48-.66-1.09-1.17-1.83-1.54-.74-.37-1.58-.55-2.5-.55-1.53,0-2.8,.49-3.82,1.48-1.02,.99-1.52,2.21-1.52,3.66s.42,2.55,1.26,3.53c1,1.15,2.37,1.73,4.1,1.73,.91,0,1.74-.17,2.47-.51,.74-.34,1.35-.83,1.85-1.46l-.78-.59c-.93,1.09-2.09,1.63-3.48,1.63-1.26,0-2.3-.4-3.13-1.21-.83-.81-1.24-1.81-1.24-3.02,0-.8,.19-1.52,.56-2.16,.37-.64,.89-1.15,1.56-1.53Z"/>
      <path class="cls-36" d="M325.81,107.57c-.92,0-1.78,.23-2.58,.69-.79,.46-1.42,1.1-1.88,1.91-.46,.81-.69,1.69-.69,2.64,0,1.43,.5,2.64,1.52,3.65,1.01,1.01,2.25,1.51,3.72,1.51s2.68-.5,3.69-1.51c1.01-1.01,1.51-2.24,1.51-3.69s-.51-2.69-1.52-3.69c-1.01-1-2.26-1.5-3.76-1.5Zm3.71,7.35c-.37,.65-.88,1.16-1.53,1.53-.65,.37-1.37,.56-2.13,.56-1.15,0-2.13-.41-2.95-1.22-.82-.81-1.22-1.8-1.22-2.98,0-.79,.18-1.52,.55-2.16,.37-.65,.88-1.16,1.54-1.54,.66-.38,1.35-.57,2.08-.57s1.45,.19,2.12,.57c.66,.38,1.18,.89,1.55,1.53,.37,.64,.55,1.35,.55,2.13s-.18,1.51-.55,2.16Z"/>
      <polygon class="cls-35" points="342.71 115.41 336.12 107.82 335.9 107.82 335.9 117.72 336.92 117.72 336.92 110.22 343.46 117.72 343.68 117.72 343.68 107.82 342.71 107.82 342.71 115.41"/>
      <path class="cls-8" d="M351.55,112.13c-.72-.53-1.15-.86-1.28-.99-.24-.24-.4-.46-.49-.66-.09-.2-.13-.41-.13-.63,0-.35,.13-.65,.38-.9,.25-.24,.58-.36,.98-.36,.31,0,.6,.08,.86,.24,.26,.16,.58,.48,.95,.98l.81-.61c-.45-.62-.88-1.04-1.29-1.28s-.84-.35-1.31-.35c-.44,0-.85,.1-1.22,.31-.37,.2-.67,.48-.87,.84-.21,.35-.31,.75-.31,1.18,0,.54,.18,1.05,.53,1.51,.2,.28,.72,.73,1.54,1.35,.82,.62,1.39,1.15,1.7,1.59,.22,.32,.34,.64,.34,.98,0,.29-.08,.57-.23,.83-.15,.26-.37,.47-.67,.62-.29,.15-.6,.23-.94,.23-.78,0-1.46-.55-2.05-1.64l-.84,.5c.41,.75,.86,1.29,1.35,1.61,.49,.32,1.03,.48,1.64,.48,.78,0,1.44-.26,1.99-.79,.54-.53,.82-1.15,.82-1.87,0-.5-.16-.99-.48-1.49-.32-.49-.91-1.06-1.76-1.69Z"/>
      <polygon class="cls-2" points="357.72 108.79 359.92 108.79 359.92 117.72 360.93 117.72 360.93 108.79 363.14 108.79 363.14 107.82 357.72 107.82 357.72 108.79"/>
      <path class="cls-27" d="M372.12,112.8c.47-.21,.83-.52,1.09-.93,.25-.41,.38-.88,.38-1.42,0-.65-.18-1.19-.55-1.63-.37-.44-.85-.73-1.43-.87-.39-.09-1.14-.14-2.23-.14h-1.97v9.9h.99v-4.6h.56l3.56,4.6h1.22l-3.56-4.6c.83,0,1.48-.11,1.95-.32Zm-3.73-.65v-3.36h1.75c.68,0,1.16,.06,1.46,.17,.29,.12,.53,.31,.71,.58,.18,.27,.27,.57,.27,.9s-.09,.65-.27,.93c-.18,.28-.42,.48-.74,.6-.32,.13-.81,.19-1.47,.19h-1.71Z"/>
      <path class="cls-15" d="M383.92,113.8c0,.78-.03,1.3-.1,1.55-.09,.35-.24,.65-.44,.9-.2,.25-.45,.44-.75,.58-.3,.14-.61,.21-.94,.21-.38,0-.75-.09-1.12-.27-.37-.18-.65-.4-.83-.66-.18-.26-.29-.59-.34-.98-.03-.17-.04-.62-.04-1.33v-5.98h-.99v5.98c0,1,.06,1.7,.18,2.09,.19,.63,.57,1.13,1.14,1.51,.57,.38,1.25,.57,2.05,.57,.74,0,1.36-.2,1.88-.61,.52-.4,.86-.88,1.04-1.42,.17-.54,.26-1.26,.26-2.14v-5.98h-.99v5.98Z"/>
      <path class="cls-28" d="M392.82,109.12c.67-.38,1.4-.57,2.19-.57,.72,0,1.39,.14,1.99,.43,.6,.29,1.12,.71,1.55,1.28l.78-.6c-.48-.66-1.09-1.17-1.83-1.54-.74-.37-1.58-.55-2.5-.55-1.53,0-2.8,.49-3.82,1.48-1.02,.99-1.52,2.21-1.52,3.66s.42,2.55,1.26,3.53c1,1.15,2.37,1.73,4.1,1.73,.91,0,1.73-.17,2.47-.51,.74-.34,1.35-.83,1.85-1.46l-.78-.59c-.93,1.09-2.09,1.63-3.48,1.63-1.26,0-2.3-.4-3.13-1.21-.83-.81-1.24-1.81-1.24-3.02,0-.8,.18-1.52,.56-2.16,.37-.64,.89-1.15,1.56-1.53Z"/>
      <path class="cls-10" d="M406.41,109.12c.67-.38,1.4-.57,2.19-.57,.72,0,1.39,.14,1.99,.43,.6,.29,1.12,.71,1.55,1.28l.78-.6c-.48-.66-1.09-1.17-1.83-1.54-.74-.37-1.58-.55-2.5-.55-1.53,0-2.8,.49-3.82,1.48-1.02,.99-1.52,2.21-1.52,3.66s.42,2.55,1.26,3.53c1,1.15,2.37,1.73,4.1,1.73,.91,0,1.73-.17,2.47-.51,.74-.34,1.35-.83,1.85-1.46l-.78-.59c-.93,1.09-2.09,1.63-3.48,1.63-1.26,0-2.3-.4-3.13-1.21-.83-.81-1.24-1.81-1.24-3.02,0-.8,.18-1.52,.56-2.16,.37-.64,.89-1.15,1.56-1.53Z"/>
      <rect class="cls-20" x="417.47" y="107.82" width=".99" height="9.9"/>
      <polygon class="cls-26" points="428.87 104.97 427.4 107.04 428.33 107.04 430.31 104.97 428.87 104.97"/>
      <path class="cls-32" d="M428.33,107.57c-.92,0-1.78,.23-2.58,.69-.79,.46-1.42,1.1-1.88,1.91-.46,.81-.69,1.69-.69,2.64,0,1.43,.51,2.64,1.52,3.65,1.01,1.01,2.25,1.51,3.72,1.51s2.68-.5,3.69-1.51c1.01-1.01,1.51-2.24,1.51-3.69s-.5-2.69-1.52-3.69c-1.01-1-2.26-1.5-3.76-1.5Zm3.71,7.35c-.37,.65-.88,1.16-1.53,1.53-.65,.37-1.36,.56-2.13,.56-1.15,0-2.13-.41-2.95-1.22-.82-.81-1.22-1.8-1.22-2.98,0-.79,.18-1.52,.55-2.16,.37-.65,.88-1.16,1.54-1.54,.66-.38,1.35-.57,2.08-.57s1.45,.19,2.12,.57c.67,.38,1.18,.89,1.55,1.53,.37,.64,.55,1.35,.55,2.13s-.18,1.51-.55,2.16Z"/>
      <polygon class="cls-33" points="445.23 115.41 438.64 107.82 438.43 107.82 438.43 117.72 439.45 117.72 439.45 110.22 445.98 117.72 446.2 117.72 446.2 107.82 445.23 107.82 445.23 115.41"/>
      <path class="cls-19" d="M64.83,101.28c0,1.55,.08,3.09-.03,4.62-.08,1.09,.39,1.54,1.31,1.9,3.95,1.57,8.06,2.4,12.27,2.78,2.22,.2,4.44,.3,6.66,.45-6.36,3.39-13.17,3.34-20.16,2.78,.12,2.73,1.33,4.22,3.77,4.98,.43,.13,1.04,.54,1.11,.9,.6,3.28,2.66,5.41,5.47,6.86,5.1,2.63,10.44,2.94,15.85,1.16,4.26-1.41,7.65-3.81,8.27-8.68,3.05-.76,4.67-2.05,4.76-4.4,.17-4.44,.05-8.9,.05-13.32-13.16,4.68-26.2,4.69-39.33-.03Z"/>
      <path class="cls-14" d="M173.2,63.9h.98l12.6,23.73h11.66l-13.27-24.91c3.55-1.27,6.21-3.14,7.98-5.62,1.76-2.48,2.65-5.55,2.65-9.24s-.8-6.54-2.4-9.1c-1.6-2.56-3.71-4.4-6.33-5.5-2.63-1.1-7.03-1.66-13.22-1.66h-11.3v56.03h10.67v-23.73Zm0-21.9h2.92c2.84,0,4.78,.2,5.85,.59,1.06,.4,1.91,1.04,2.54,1.95,.63,.9,.95,1.97,.95,3.19,0,2.06-.64,3.54-1.92,4.43s-3.61,1.34-7.01,1.34h-3.34v-11.5Z"/>
      <rect class="cls-5" x="218" y="31.6" width="10.59" height="56.03"/>
      <path class="cls-30" d="M345.33,76.09h22.86l4.38,11.54h11.08l-21.55-56.03h-10.82l-21.61,56.03h11.08l4.56-11.54Zm11.44-29.63l7.47,19.24h-14.99l7.52-19.24Z"/>
      <path class="cls-7" d="M421.64,89.04c4.72,0,8.93-.78,12.61-2.34,3.68-1.56,7.59-4.36,11.73-8.4l-7.23-7.54c-3.07,3.05-5.89,5.15-8.45,6.31s-5.39,1.73-8.49,1.73c-3.63,0-6.93-.83-9.9-2.48s-5.26-3.93-6.89-6.82c-1.62-2.9-2.44-6.22-2.44-9.95,0-5.36,1.83-9.88,5.5-13.54,3.67-3.66,8.18-5.49,13.53-5.49,6.34,0,12.05,2.68,17.13,8.04l7.46-7.11c-3.1-3.6-6.79-6.38-11.07-8.33-4.28-1.95-8.73-2.93-13.35-2.93-5.43,0-10.51,1.32-15.22,3.96-4.71,2.64-8.33,6.13-10.86,10.47-2.53,4.34-3.79,9.31-3.79,14.89,0,8.63,2.77,15.71,8.32,21.24,5.55,5.52,12.68,8.28,21.39,8.28Z"/>
      <polygon class="cls-12" points="280.75 47.98 280.75 64.9 289.54 53.48 289.54 31.52 282.79 31.52 237.38 87.63 248.65 87.63 280.75 47.98"/>
      <polygon class="cls-21" points="277.81 87.63 309.9 47.98 309.9 87.63 318.7 87.63 318.7 31.52 311.94 31.52 266.53 87.63 277.81 87.63"/>
      <path class="cls-18" d="M47.49,52.26c.55,1.6,1.18,3.19,1.91,4.78,.88,1.91,1.85,3.78,2.85,5.63,29.95,.25,54.84-11.08,71.74-21.89,.24-5.65-.44-10.86-2.08-15.59-29.08,24.91-61.47,27.26-74.42,27.07Z"/>
      <path class="cls-16" d="M119.37,19.58c-2.12-3.78-4.97-7.18-8.55-10.18-23.41,15.93-47.04,19.69-64.41,19.59-1.05,4-1.42,8-1.19,11.99,30.92,1.07,56.68-10.34,74.15-21.4Z"/>
      <path class="cls-11" d="M74.21,1.41c-9.91,2.42-17.97,7.82-23.32,16.83,22.15,.04,41.59-5.93,55.61-12.02C96.6-.17,85.64-1.38,74.21,1.41Z"/>
      <path class="cls-25" d="M147.87,94.69l-.06-.06-.79-62.13-17.92,18.07c-.54,.55-.84,1.27-.84,2.04v42.07h-22.92c.02-.15,.03-.3,.04-.45,.37-6.01,2-11.77,4.84-17.11,1.76-3.32,3.67-6.64,5.51-9.85,.56-.98,1.12-1.95,1.68-2.93,3.12-5.46,5.13-10.15,6.31-14.76l.74-2.89-2.34,1.86c-24.16,19.26-50.26,23.4-63.67,24.16l-1.59,.09,.77,1.39c2.63,4.77,5.7,11.2,6.16,18.62,.04,.67,.13,1.29,.28,1.88h-19.85v-14.31c0-.98-.35-1.94-.99-2.69l-12.9-15.2c-.49-.58-1.21-.92-1.98-.92h0c-.77,0-1.49,.34-1.98,.93l-12.52,14.97c-.67,.81-1.05,1.83-1.05,2.88v14.34H0v1c0,1.65,1.35,3,3,3H14.2c1.45,0,2.63-1.18,2.63-2.63v-15.23c0-.42,.15-.83,.42-1.16l10.44-12.48c.24-.29,.55-.33,.71-.33h0c.16,0,.46,.04,.71,.33l10.88,12.83c.17,.2,.26,.45,.26,.71v15.9c0,1.14,.93,2.07,2.07,2.07h24.38c.76,.56,1.68,1.02,2.81,1.4,5.28,1.8,10.65,2.18,15.26,2.3,5.18-.16,11.18-.53,16.83-3.02,.45-.2,.87-.43,1.26-.69h27.27c1.18,0,2.14-.96,2.14-2.14V53.36c0-.18,.07-.35,.2-.48l10.69-10.78,.7,54.66c.01,1.07,.9,1.94,1.97,1.94H448.88l.26-4H147.87Z"/>
    </g>
  </g>
</svg>