<?xml version="1.0" encoding="UTF-8"?>
<svg id="Capa_2" data-name="Capa 2" xmlns="http://www.w3.org/2000/svg" viewBox="0 0 363.81 72.96">
  <defs>
    <style>
      .cls-1 {
        fill: #575756;
      }
    </style>
  </defs>
  <g id="Capa_1-2" data-name="Capa 1">
    <g>
      <g>
        <path class="cls-1" d="m89.87,15.84h11.45v4.54h-6.29v3.15h6.1v4.54h-6.1v3.47h6.29v4.54h-11.45V15.84Z"/>
        <path class="cls-1" d="m123.37,28.17l-.11-12.33h4.95v20.23h-4.48l-7.74-12.19.11,12.19h-4.95V15.84h4.45l7.76,12.33Z"/>
        <path class="cls-1" d="m153.02,22.62c-.27-.49-.63-.95-1.07-1.37-.85-.74-1.97-1.26-3.39-1.26-2.54,0-5.52,1.89-5.52,5.88,0,4.24,3.01,6.07,5.55,6.07,1.29,0,2.35-.33,3.17-.9.82-.55,1.39-1.37,1.67-2.35h-6.04v-4.13h12c.11,1.45-.05,3.83-.93,5.8-1.97,4.46-6.51,6.12-9.84,6.12-6.12,0-10.74-4.78-10.74-10.61s4.87-10.41,10.82-10.41c4.84,0,8.99,3.25,10.12,7.16h-5.8Z"/>
        <path class="cls-1" d="m168.94,15.84h6.62c3.17,0,5.14.57,6.26,1.45,1.69,1.31,2.46,3.31,2.46,5.52,0,1.56-.44,2.76-1.01,3.66-.68,1.07-1.67,1.75-2.62,2.16l4.18,7.44h-5.33l-5.28-9.76h.85c1.31,0,2.43-.11,3.12-.55.63-.41,1.15-1.37,1.15-2.49s-.52-1.91-1.2-2.35c-.57-.36-1.39-.55-2.11-.55h-1.91v15.69h-5.17V15.84Z"/>
        <path class="cls-1" d="m197.66,36.07h-5.6l8.01-20.23h4.46l7.76,20.23h-5.66l-.96-2.92h-7.08l-.93,2.92Zm4.4-14.08l-2.19,7.05h4.46l-2.27-7.05Z"/>
        <path class="cls-1" d="m233.43,28.17l-.11-12.33h4.95v20.23h-4.48l-7.74-12.19.11,12.19h-4.95V15.84h4.45l7.76,12.33Z"/>
        <path class="cls-1" d="m252.82,36.07h-5.6l8.01-20.23h4.46l7.76,20.23h-5.66l-.96-2.92h-7.08l-.93,2.92Zm4.4-14.08l-2.19,7.05h4.46l-2.27-7.05Z"/>
        <path class="cls-1" d="m282.99,15.84c3.74,0,5.14.57,6.23,1.48,1.59,1.31,2.38,3.31,2.38,5.36s-.85,4.21-2.13,5.3c-1.39,1.18-2.76,1.75-5.9,1.75h-2.02v6.34h-5.17V15.84h6.62Zm-1.45,9.35h1.89c.49,0,1.31,0,2-.3s1.23-.93,1.23-2.13-.57-1.78-1.28-2.08c-.71-.3-1.56-.3-2.13-.3h-1.69v4.81Z"/>
        <path class="cls-1" d="m300.61,36.07V15.84h5.17v7.6h6.62v-7.6h5.17v20.23h-5.17v-8.09h-6.62v8.09h-5.17Z"/>
        <path class="cls-1" d="m328.07,15.84h5.17v20.23h-5.17V15.84Z"/>
        <path class="cls-1" d="m363.81,28.5c-1.18,4.78-5.33,7.96-10.22,7.96-6.34,0-10.66-5.06-10.66-10.53,0-5.17,3.99-10.47,10.61-10.47s9.73,4.89,10.28,8.06h-5.41c-.57-1.5-2.1-3.53-4.89-3.53-3.47,0-5.41,3.04-5.41,5.91,0,3.06,2.08,6.01,5.44,6.01s4.54-2.71,4.87-3.42h5.41Z"/>
      </g>
      <g>
        <path class="cls-1" d="m91.96,58.45c.21,2.12,1.76,2.57,2.55,2.57,1.33,0,2.55-1.02,2.55-2.43,0-1.79-1.53-2.19-3.02-2.67-1.04-.31-3.26-.97-3.26-3.38-.03-2.26,1.85-3.52,3.8-3.52,1.59,0,3.42.88,3.62,3.29h-1.42c-.15-.83-.57-2.09-2.26-2.09-1.28,0-2.33.86-2.33,2.19-.02,1.55,1.24,1.93,3.17,2.59,1.21.47,3.11,1.14,3.11,3.49,0,2.09-1.57,3.74-3.95,3.74-2.14,0-3.92-1.35-4-3.78h1.43Z"/>
        <path class="cls-1" d="m104.11,55.65c0-3.93,3.05-6.64,6.66-6.64s6.66,2.86,6.66,6.61-2.9,6.61-6.66,6.61-6.66-2.92-6.66-6.56v-.02Zm1.43-.04c0,3,2.26,5.35,5.24,5.35s5.23-2.43,5.23-5.35-2.21-5.35-5.24-5.35-5.23,2.38-5.23,5.33v.02Z"/>
        <path class="cls-1" d="m123.72,49.24h1.43v11.51h4.86v1.26h-6.3v-12.77Z"/>
        <path class="cls-1" d="m137.07,49.24v8.09c0,.97,0,1.71.6,2.57.45.64,1.29,1.07,2.22,1.07s1.76-.41,2.19-1.05c.6-.85.6-1.59.6-2.59v-8.09h1.41v8.09c.02,1.48-.17,2.95-1.45,3.93-.71.6-1.66.97-2.76.97-.9,0-2.02-.26-2.81-.97-1.35-1.09-1.45-2.54-1.45-3.93v-8.09h1.43Z"/>
        <path class="cls-1" d="m162.9,58.57c-.83,1.97-3.05,3.66-5.87,3.66-3.78,0-6.66-2.92-6.66-6.61s2.81-6.61,6.64-6.61c3.16,0,5.14,2.11,5.88,3.73h-1.54c-.43-.76-1.88-2.47-4.35-2.47-2.98,0-5.23,2.36-5.23,5.33s2.26,5.36,5.23,5.36c2.67,0,4.04-1.91,4.35-2.4h1.54Z"/>
        <path class="cls-1" d="m169.1,49.24h1.41v12.77h-1.41v-12.77Z"/>
        <path class="cls-1" d="m176.79,55.65c0-3.93,3.05-6.64,6.66-6.64s6.66,2.86,6.66,6.61-2.9,6.61-6.66,6.61-6.66-2.92-6.66-6.56v-.02Zm1.43-.04c0,3,2.26,5.35,5.24,5.35s5.23-2.43,5.23-5.35-2.21-5.35-5.24-5.35-5.23,2.38-5.23,5.33v.02Z"/>
        <path class="cls-1" d="m205.32,59.9l-.02-10.66h1.38v12.77h-1.38l-7.57-10.75.03,10.75h-1.38v-12.77h1.45l7.49,10.66Z"/>
        <path class="cls-1" d="m213.56,49.24h7.07v1.26h-5.66v4.43h5.62v1.26h-5.62v4.55h5.66v1.26h-7.07v-12.77Z"/>
        <path class="cls-1" d="m228.01,58.45c.21,2.12,1.76,2.57,2.55,2.57,1.33,0,2.55-1.02,2.55-2.43,0-1.79-1.53-2.19-3.02-2.67-1.04-.31-3.26-.97-3.26-3.38-.03-2.26,1.85-3.52,3.8-3.52,1.59,0,3.42.88,3.62,3.29h-1.42c-.15-.83-.57-2.09-2.26-2.09-1.28,0-2.33.86-2.33,2.19-.02,1.55,1.24,1.93,3.17,2.59,1.21.47,3.11,1.14,3.11,3.49,0,2.09-1.57,3.74-3.95,3.74-2.14,0-3.92-1.35-4-3.78h1.43Z"/>
        <path class="cls-1" d="m250.04,49.24h3.81c1.81,0,3.74.4,5.02,1.91,1.04,1.14,1.53,2.64,1.53,4.45,0,3.85-2.19,6.4-6.49,6.4h-3.88v-12.77Zm1.41,11.51h2.54c3.28,0,4.99-2.02,4.99-5.09,0-1.48-.4-2.8-1.24-3.73-.81-.86-2-1.43-3.74-1.43h-2.54v10.25Z"/>
        <path class="cls-1" d="m266.69,49.24h1.41v12.77h-1.41v-12.77Z"/>
        <path class="cls-1" d="m285.45,52.55c-.4-.55-.88-1.02-1.43-1.38-.83-.57-1.83-.9-2.97-.9-2.8,0-5.23,2.14-5.23,5.33s2.45,5.38,5.24,5.38c1.35,0,2.54-.47,3.42-1.16.9-.71,1.52-1.67,1.73-2.67h-6.35v-1.17h8c-.02.74-.19,1.67-.57,2.47-1.1,2.4-3.66,3.8-6.23,3.8-3.73,0-6.68-2.86-6.68-6.64s3-6.59,6.69-6.59c2.59,0,4.99,1.45,5.99,3.54h-1.62Z"/>
        <path class="cls-1" d="m294.02,49.24h1.41v12.77h-1.41v-12.77Z"/>
        <path class="cls-1" d="m304.3,50.5h-3.14v-1.26h7.73v1.26h-3.16v11.51h-1.43v-11.51Z"/>
        <path class="cls-1" d="m313.67,62h-1.53l5.33-12.77h1.38l5.28,12.77h-1.55l-1.48-3.59h-5.95l-1.47,3.59Zm4.43-11.16l-2.54,6.4h5.09l-2.55-6.4Z"/>
        <path class="cls-1" d="m329.87,49.24h1.43v11.51h4.86v1.26h-6.3v-12.77Z"/>
        <path class="cls-1" d="m341.83,49.24h7.07v1.26h-5.66v4.43h5.62v1.26h-5.62v4.55h5.66v1.26h-7.07v-12.77Z"/>
        <path class="cls-1" d="m356.28,58.45c.21,2.12,1.76,2.57,2.55,2.57,1.33,0,2.55-1.02,2.55-2.43,0-1.79-1.53-2.19-3.02-2.67-1.04-.31-3.26-.97-3.26-3.38-.03-2.26,1.85-3.52,3.8-3.52,1.59,0,3.42.88,3.62,3.29h-1.42c-.15-.83-.57-2.09-2.26-2.09-1.28,0-2.33.86-2.33,2.19-.02,1.55,1.24,1.93,3.17,2.59,1.21.47,3.11,1.14,3.11,3.49,0,2.09-1.57,3.74-3.95,3.74-2.14,0-3.92-1.35-4-3.78h1.43Z"/>
      </g>
      <g>
        <path class="cls-1" d="m69.79,50.88c-1.26-1.07-3.1-2.65-4.21-4.12,2.61-8.02-.6-15.81-3.68-20.86-3.12-5.12-8.54-8.49-14.52-8.73-2.98-.12-6.2.5-9.03,2.71-6.23,4.86-4.04,10.11-2.71,12.27h0s.06.1.1.15c.07.11.14.21.2.3,2.42,3.56,3.32,7.75,2.4,10.09-.8,2.05-2.34,3.54-4.39,4.33-.79.31-1.56.52-2.32.74-.19.02-.38.06-.57.07-.04,0-.09,0-.13,0-.17,0-.34,0-.51-.01-2.06-.12-6.21-1.19-9.56-7.42-.09-.19-.16-.37-.24-.56-.45-1.16-1.49-4.29-1.47-8.31.23-5.26,1.86-9.81,4.69-13.39.14-.18.3-.33.44-.51.94-1.11,1.98-2.15,3.14-3.06.89-.68,1.79-1.28,2.68-1.82,0,0,.01,0,.02-.01,1.77-1.05,3.53-1.82,5.27-2.36.06-.02.12-.04.18-.05.6-.18,1.19-.31,1.77-.44.75-.16,1.49-.29,2.2-.38.13-.02.26-.04.39-.05.43-.05.85-.08,1.27-.11,3.51-.19,6.74.38,9.48,1.23,2.15.74,4.56,1.77,7.32,3.41.35.22.69.44,1.04.68.6.46,1.06.72,1.41.86.05.02.11.05.19.07.74.22.92-.18.98-.23,0,0,.04-.06.06-.08.04-.05.08-.08.11-.14.05-.09.08-.13.12-.2.03-.05.06-.06.1-.11h0s.05-.08.08-.13c.01-.02.02-.03.03-.05,0,0,0,0,0,0,.04-.06.08-.16.12-.23.02-.03.03-.05.04-.06,0,0,0,0,0,0,.01-.02.02-.04.03-.06.03-.05.07-.11.07-.11,0,0,0,0,0,0,.08-.14.14-.26.23-.43.26-.52.08-.78-.34-1.4-.23-.33-.81-1.01-1.33-.92-.45.08-.98.17-1.46.18-.88-.75-1.65-1.38-2.31-1.91-.03-.03-.06-.05-.09-.08-.13-.61-.16-1.39-.14-1.91.04-.92-.56-1.44-1.3-1.98-1.15-.84-1.63-1.23-2.45-.81-.73.37-1.62.65-2.53.63-1.08-.5-2.29-.98-3.62-1.41-.24-.09-.47-.18-.73-.27-.64-.71-.94-1.76-1.2-2.54-.27-.8-1.35-1.03-2.24-1.16-.65-.1-1.69-.37-2.14.19-.84,1.06-1.52,1.84-2.6,2.12-.11,0-.21,0-.32,0-.01,0-.02,0-.03,0-2.18-.11-4.23.03-6.14.34-1.1-.23-1.89-1.02-2.86-2.39-.38-.53-2.16-.39-2.95-.16-.89.27-1.9.83-1.94,1.5-.13,1.85-.29,2.98-1.15,3.86-.08.04-.15.09-.24.13-3.63,1.81-5.91,3.77-6.39,4.18-.02.02-.05.04-.07.06-.08.06-.16.12-.24.19-.96.22-1.95,0-2.86-.62-1.61-1.09-2.63-.48-3.68.72-1.07,1.22-2.16,2.33-.89,4.15.77,1.11,1.05,2.24.89,3.41-.33.58-.65,1.2-.97,1.86-.62,1.22-1.17,2.54-1.7,4.09-.01.04-.03.07-.04.11-.5,1.44-.87,2.79-1.14,4.08-.01.05-.02.09-.03.13-.68.94-1.67,1.47-3.01,1.57C0,29.87.01,31.57,0,33.11c0,1.6-.19,3.66,1.91,4.19,1.39.35,2.51.8,3.26,1.7,0,.03,0,.06.01.1.04.19.09.35.13.54.34,1.57.73,3.05,1.19,4.44,0,0,0,0,0,0,0,0,0,0,0,0,.51,1.5,1.09,2.9,1.72,4.2.02.05.04.1.07.15.08,1.8-.8,3.39-1.95,5.13-1.89,2.84-1.94,2.94.18,5.54.68.84,1.45,1.62,2.25,2.34,1.45,1.3,2.95,2.03,4.79.52.58-.47,2-1.12,2.74-1.39,1.05-.39,1.97-.37,2.84-.15.88.54,1.76,1.04,2.65,1.48,1.2.64,2.58,1.29,4.27,1.88.1.04.2.07.31.1,2.47,1.51,3.69,3.86,4.09,6.98.09.69.98,1.76,1.59,1.83,2.48.27,5,.29,7.51.25,1.41-.02,1.9-1.02,2.4-2.33.75-1.97,1.55-4.3,3.02-5.71.2-.2.43-.36.67-.51.36-.1.73-.2,1.1-.32,3.22-1.02,6.74-2.73,10.05-5.39,2.2.08,3.53,2.03,6.08,3.27.75.36,2.33.24,2.82-.31,1.82-2.01,3.44-4.23,4.93-6.5,1.01-1.54.79-2.87-.85-4.27Z"/>
        <path class="cls-1" d="m62.26,14.36h0s0,0,0,0Z"/>
      </g>
    </g>
  </g>
</svg>