<?xml version="1.0" encoding="UTF-8"?>
<svg id="Capa_2" data-name="Capa 2" xmlns="http://www.w3.org/2000/svg" xmlns:xlink="http://www.w3.org/1999/xlink" viewBox="0 0 156.76 146.46">
  <defs>
    <style>
      .cls-1 {
        fill: url(#Degradado_sin_nombre_12-9);
      }

      .cls-2 {
        fill: url(#Degradado_sin_nombre_12-17);
      }

      .cls-3 {
        fill: url(#Degradado_sin_nombre_12-4);
      }

      .cls-4 {
        fill: url(#Degradado_sin_nombre_12-13);
      }

      .cls-5 {
        fill: url(#Degradado_sin_nombre_12-2);
      }

      .cls-6 {
        fill: url(#Degradado_sin_nombre_12-16);
      }

      .cls-7 {
        fill: url(#Degradado_sin_nombre_12-11);
      }

      .cls-8 {
        fill: url(#Degradado_sin_nombre_12-21);
      }

      .cls-9 {
        fill: url(#Degradado_sin_nombre_12-10);
      }

      .cls-10 {
        fill: url(#Degradado_sin_nombre_12-19);
      }

      .cls-11 {
        fill: url(#Degradado_sin_nombre_12-6);
      }

      .cls-12 {
        fill: url(#Degradado_sin_nombre_12-22);
      }

      .cls-13 {
        fill: url(#Degradado_sin_nombre_12-7);
      }

      .cls-14 {
        fill: url(#Degradado_sin_nombre_12-5);
      }

      .cls-15 {
        fill: url(#Degradado_sin_nombre_12-8);
      }

      .cls-16 {
        fill: url(#Degradado_sin_nombre_12-23);
      }

      .cls-17 {
        fill: url(#Degradado_sin_nombre_12-18);
      }

      .cls-18 {
        fill: url(#Degradado_sin_nombre_12-20);
      }

      .cls-19 {
        fill: url(#Degradado_sin_nombre_12-12);
      }

      .cls-20 {
        fill: url(#Degradado_sin_nombre_12-3);
      }

      .cls-21 {
        fill: url(#Degradado_sin_nombre_12);
      }

      .cls-22 {
        fill: url(#Degradado_sin_nombre_12-15);
      }

      .cls-23 {
        fill: url(#Degradado_sin_nombre_12-14);
      }
    </style>
    <linearGradient id="Degradado_sin_nombre_12" data-name="Degradado sin nombre 12" x1="-18.53" y1="103.55" x2="163.41" y2="15.37" gradientUnits="userSpaceOnUse">
      <stop offset="0" stop-color="#00a099"/>
      <stop offset="1" stop-color="#1ca0cb"/>
    </linearGradient>
    <linearGradient id="Degradado_sin_nombre_12-2" data-name="Degradado sin nombre 12" x1="-24.56" y1="91.11" x2="157.38" y2="2.93" xlink:href="#Degradado_sin_nombre_12"/>
    <linearGradient id="Degradado_sin_nombre_12-3" data-name="Degradado sin nombre 12" x1="-15.36" y1="110.1" x2="166.59" y2="21.92" xlink:href="#Degradado_sin_nombre_12"/>
    <linearGradient id="Degradado_sin_nombre_12-4" data-name="Degradado sin nombre 12" x1="-7.94" y1="125.41" x2="174.01" y2="37.23" xlink:href="#Degradado_sin_nombre_12"/>
    <linearGradient id="Degradado_sin_nombre_12-5" data-name="Degradado sin nombre 12" x1="-.87" y1="139.99" x2="181.08" y2="51.81" xlink:href="#Degradado_sin_nombre_12"/>
    <linearGradient id="Degradado_sin_nombre_12-6" data-name="Degradado sin nombre 12" x1="2.38" y1="146.69" x2="184.32" y2="58.51" xlink:href="#Degradado_sin_nombre_12"/>
    <linearGradient id="Degradado_sin_nombre_12-7" data-name="Degradado sin nombre 12" x1="8.94" y1="160.24" x2="190.89" y2="72.05" xlink:href="#Degradado_sin_nombre_12"/>
    <linearGradient id="Degradado_sin_nombre_12-8" data-name="Degradado sin nombre 12" x1="8.72" y1="159.78" x2="190.66" y2="71.59" xlink:href="#Degradado_sin_nombre_12"/>
    <linearGradient id="Degradado_sin_nombre_12-9" data-name="Degradado sin nombre 12" x1="10.45" y1="163.36" x2="192.4" y2="75.17" xlink:href="#Degradado_sin_nombre_12"/>
    <linearGradient id="Degradado_sin_nombre_12-10" data-name="Degradado sin nombre 12" x1="13.12" y1="168.86" x2="195.07" y2="80.68" xlink:href="#Degradado_sin_nombre_12"/>
    <linearGradient id="Degradado_sin_nombre_12-11" data-name="Degradado sin nombre 12" x1="14.68" y1="172.07" x2="196.62" y2="83.89" xlink:href="#Degradado_sin_nombre_12"/>
    <linearGradient id="Degradado_sin_nombre_12-12" data-name="Degradado sin nombre 12" x1="14.18" y1="171.03" x2="196.12" y2="82.85" xlink:href="#Degradado_sin_nombre_12"/>
    <linearGradient id="Degradado_sin_nombre_12-13" data-name="Degradado sin nombre 12" x1="15.76" y1="174.31" x2="197.71" y2="86.13" xlink:href="#Degradado_sin_nombre_12"/>
    <linearGradient id="Degradado_sin_nombre_12-14" data-name="Degradado sin nombre 12" x1="6.18" y1="154.54" x2="188.13" y2="66.36" xlink:href="#Degradado_sin_nombre_12"/>
    <linearGradient id="Degradado_sin_nombre_12-15" data-name="Degradado sin nombre 12" x1="-22.85" y1="94.63" x2="159.09" y2="6.45" xlink:href="#Degradado_sin_nombre_12"/>
    <linearGradient id="Degradado_sin_nombre_12-16" data-name="Degradado sin nombre 12" x1="-38.04" y1="63.3" x2="143.91" y2="-24.88" xlink:href="#Degradado_sin_nombre_12"/>
    <linearGradient id="Degradado_sin_nombre_12-17" data-name="Degradado sin nombre 12" x1="-33.7" y1="72.24" x2="148.24" y2="-15.94" xlink:href="#Degradado_sin_nombre_12"/>
    <linearGradient id="Degradado_sin_nombre_12-18" data-name="Degradado sin nombre 12" x1="-31.54" y1="76.71" x2="150.41" y2="-11.47" xlink:href="#Degradado_sin_nombre_12"/>
    <linearGradient id="Degradado_sin_nombre_12-19" data-name="Degradado sin nombre 12" x1="-35.89" y1="67.72" x2="146.05" y2="-20.46" xlink:href="#Degradado_sin_nombre_12"/>
    <linearGradient id="Degradado_sin_nombre_12-20" data-name="Degradado sin nombre 12" x1="-34.42" y1="70.77" x2="147.53" y2="-17.41" xlink:href="#Degradado_sin_nombre_12"/>
    <linearGradient id="Degradado_sin_nombre_12-21" data-name="Degradado sin nombre 12" x1="-32.58" y1="74.56" x2="149.37" y2="-13.62" xlink:href="#Degradado_sin_nombre_12"/>
    <linearGradient id="Degradado_sin_nombre_12-22" data-name="Degradado sin nombre 12" x1="-10.69" y1="119.72" x2="171.25" y2="31.54" xlink:href="#Degradado_sin_nombre_12"/>
    <linearGradient id="Degradado_sin_nombre_12-23" data-name="Degradado sin nombre 12" x1="5.8" y1="153.74" x2="187.74" y2="65.56" xlink:href="#Degradado_sin_nombre_12"/>
  </defs>
  <g id="Capa_1-2" data-name="Capa 1">
    <g>
      <path class="cls-21" d="M50.78,61.67c-1.25,3.26-2.74,7.47-2.69,10.59,.04,2.63-.09,5.45,3.55,4.62,2.88-.65,6.53-5.41,8.62-9.18-.03,.33-.05,.64-.05,.93-.03,2.47-.77,7.25,2.95,6.32,4.83-1.2,9.15-10.16,11.64-14.24,1.61-2.63,3.37-5.22,3.97-7.65,.26-1.07-.26-.79-.66-.78-.4,0-.31-.08-.69,.55-1.51,2.47-2.79,4.67-4.61,7.53-1.83,2.86-4.61,8.42-7.96,10.27-.19-.65-.17-1.16-.1-1.9,.21-2.05,.8-4.14,1.25-6.19,.3-1.33,.85-2.44,.88-3.9,.04-1.46-1.26-3.14-2.9-3.08-.8,.03-1.52,.69-1.89,1.33-.38,.65-.49,1.56-.54,2.22-.12,1.45-.46,3.26-.77,5-.08,.14-.15,.3-.25,.45-1.87,3-4.37,7.9-7.83,9.13-.59,.21-.47-.55-.38-1.51,.21-2.16,1.32-5.78,2.42-8.14,.56-1.21,2.2-3.3,2.29-4.44,.14-1.81-1.52-2.49-2.77-2.32-2.02,.28-2.91,2.9-3.48,4.39Z"/>
      <path class="cls-5" d="M56.48,54.86c2-.28,3.63-3.21,3.76-4.86,.13-1.66-1.2-1.99-2.43-1.84-2.12,.27-3.4,3.28-3.49,4.93-.09,1.65,.95,1.94,2.15,1.77Z"/>
      <path class="cls-20" d="M80.9,55.06c-3.18,3.92-6.25,8.81-6.54,13.74-.2,3.32,2.88,4.95,5.54,4.49,5.85-1.03,11.34-7.95,14.01-12,1.08-1.64,.74-1.55,.14-1.76-.6-.21-1.1,.83-1.64,1.46-3.06,3.6-7,8.45-11.77,9.63-1.19,.3-1.47-.22-1.53-1.27-.1-1.87,.79-4.05,1.61-5.79,.64,.29,1.31,.59,2.08,.36,3.74-1.14,8.33-5.41,8.72-9.28,.26-2.59-2.52-3.44-4.67-3.43s-4.52,2.07-5.95,3.84Zm7.45,.76c-.59,2.36-3.22,5.09-5.67,6.29-.33,.16-.93,.35-1.35,.32,.81-1.34,1.64-2.68,2.6-3.94,.96-1.26,1.95-3.03,3.62-3.48,.28-.07,1.08-.29,.8,.8Z"/>
      <path class="cls-3" d="M46.14,112.48c-2.16,1.1-6.69,2.53-8.54,2.84s-2.01-.25-2.89-.15c-.88,.1-.81,.58-.75,.98,.24,1.61,2.06,1.81,3.6,1.56,2.87-.48,5.96-1.74,8.71-2.88,.11,.41,.11,1.24,.73,1.22,.62-.02,1.06-.51,1.21-1.03,.16-.52,.13-.73,.3-1.25,5.79-2.74,12.57-6.91,17.09-10.94,3.92-3.49,7.97-8.15,8.16-12.5,.27-6.04-4.09-7.15-8.31-8.93-1.33-.56-2.73-.36-4.07-.7-.87-.93-2-1.47-3.29-1.15-.66,.16-1.08,.59-1.6,1.02-1.32,.03-3.35,.21-4.52,.41-3.3,.57-7.16,.98-9.69,2.86-1.03,.77-.77,1.61-1,2.51-.09,.34,.02,.69,.12,.88,.46,.93,1.26,1.61,2.33,1.57,2.28-.09,4.24-1.38,6.44-2.07,1.01-.32,2.41-.59,3.52-.76-3.03,7.43-5.52,15.12-7.16,22.99-.23,1.11-.27,2.34-.41,3.51Zm11.23-22.47c.86-1.79,1.54-2.68,2.43-4.32,.87,.13,2.3,.06,3.1,.33,2.92,.97,6.46,1.74,6.24,5.66-.21,3.92-3.01,7.07-6.12,10.08-3.6,3.5-9.02,6.84-13.7,9.24,2.17-7.07,4.88-14.38,8.04-20.98Z"/>
      <path class="cls-14" d="M85.63,88.92c-1.12-.84-3.04-1.31-4.36-.75-5.94,2.54-10.5,9.49-11.33,15.46-.29,2.08,.49,3.67,2.66,3.13,3.38-.83,6.65-6.37,8.62-9.34-.52,1.62-1.11,3.41-1.26,5.16-.03,.39-.12,.74-.04,1.1,.38,1.59,1.09,2.94,3.25,2.26,1.27-.4,3.19-2.49,3.94-3.84-.02,.28-.14,.31-.12,.6,.04,1.14,.29,2.3,1.67,2.39,.65,.04,1.16-.56,1.44-1.32,.46-1.22,1.59-4.32,2.03-5.32,1.65-3.7,5.2-10.81,7.65-11.49,.71-.15-3.68,10.6-3.93,13.22-.16,1.69,.04,4.39,3.44,3.26,3.4-1.13,6.61-8.68,7.59-12.25,.22-.8,.39-1.58-.11-1.67-.5-.09-.52,.39-.71,.81-1.27,2.73-2.95,8.27-5.63,9.75-.73,.4-.61-.04-.56-.85,.14-2.14,1.27-5.4,2.15-7.65,.88-2.26,2.89-5.86,3.36-7.75,.47-1.89,1.27-4.86-1.57-4.04s-6.67,7.28-8.46,9.96c-.91,1.37-1.4,2.21-2.15,3.36,.88-1.75,2.26-5.83,2.64-7.21,.59-2.19-.85-2.8-1.94-2.72-1.09,.07-1.37,.83-1.56,1.69-.53,2.46-1.19,5.13-2.1,7.46-.19,.48-.38,1.1-.45,1.34-.07,.24-.15,.3-.16,.34-.6,2.18-3.8,9.58-6,9.18-2.2-.39,2.55-7.9,3.1-9.21,.18-.43,1.68-2.86,1.71-3.63,.02-.78-.15-.89-.68-1.14-.53-.25-1.57-.08-1.9-.13-.33-.05-.17-.1-.21-.14Zm-5.02,6.95c-1.94,2.73-4.08,6.71-6.87,8.24-.4,.22-.37,.12-.31-.28,.67-4.74,4.4-10.41,8.67-12.61,.55-.29,.79-.18,.75,.34-.1,1.34-1.48,3.26-2.24,4.32Z"/>
      <path class="cls-11" d="M107.41,94.49c-.85,1-2.47,2.88-3.29,4.31-.4,.69-.88,2.16-.93,2.96-.05,.81-.01,1.88,1.15,1.62,4.43-.97,7.8-4.83,12.53-5.51,.36,1.08,.34,3.12,2.33,2.61,3.55-.9,6.55-5.89,8.55-8.92-.43,1.57-1,3.26-1.13,4.9-.03,.37-.06,.78-.07,1.13-.04,1.8,.57,3.4,3.33,2.31,2.76-1.09,6.39-6.85,7.47-9.9,.28-.78,.2-.85-.18-.99-.38-.14-.86,.57-.95,.76-.88,1.96-3.96,7.94-6,7.63-2.03-.31,1.6-6.85,2.07-7.86,.35-.75,.69-1.26,.99-2.42,.75-4.19-2.63-5.62-5.95-5.92-1.27-.11-1.36,.12-1.56,.42-2.28,4.79-6.68,7.92-8.43,12.81,0,.02-.02,.03-.03,.06-.84,1.53-2.86,1.63-4.31,1.85-2.28,.36-4.01,.97-6.1,1.71,6.57-8.66,16.53-10.91,12.76-15.5-.76-.92-2.09-1.73-3.21-2.24-2.34-1.06-7.2-1.48-8.62,.7-.3,.53-.35,1.06-.4,1.77-.05,.88,.57,2.9,1.46,2.93,.9,.03,1.36-.85,1.95-1.15,1.84-.96,3.85-1.04,5.65,.01-3.48,3.11-5.96,6.25-9.09,9.94Zm12.98,3c.78-3.92,3.89-10.38,7.37-12.59,.45-.29,.62,.23,.67,.71,.11,1.24-.55,3.31-1.25,4.35-1.78,2.67-3.99,6.22-6.53,7.84-.36,.23-.33,.04-.26-.3Z"/>
      <path class="cls-13" d="M62.33,133.81c1.18-2.48-1.66-2.43-3.22-2.15-1.91,.34-4.64,1.18-6.36,2.32-.43,.28-.84,.7-.97,1.03-.25,.64,.05,1.03,.55,.89,.53-.15,1.04-.52,1.64-.82,.2-.1,.4-.2,.57-.29-.27,.29-.53,.61-.7,.83-1.17,1.4-2.67,3.49-3.88,5.38h-.04c-.24,.06-.36,.2-.44,.37-.06,.12-.03,.19,.11,.22-.76,1.19-1.37,2.27-1.69,3.01-.34,.8-.71,1.98,0,1.84,.14-.03,.26-.09,.3-.2,.09-.25,.12-.49,.28-.83,.51-1.08,1.56-2.59,2.68-4.08,.68-.18,1.34-.42,1.67-.55,1.18-.48,2.58-1.07,4.02-1.99,2.41-1.53,4.74-3.45,5.48-5Zm-9.15,6.08c-.37,.15-.81,.31-1.26,.47,1.14-1.48,2.25-2.8,2.83-3.5,1.23-1.47,1.62-1.54,1.92-2.16,.14-.29,0-.57-.21-.74,.72-.26,1.31-.4,1.98-.51,.89-.15,2.97-.25,2.34,1.1-.5,1.04-2.23,2.38-3.97,3.5-1.45,.92-2.83,1.51-3.62,1.84Z"/>
      <path class="cls-15" d="M63.22,134.36c.69-.13,1.92-1.52,2.19-2.1,.27-.55-.06-.79-.51-.7-.78,.14-1.82,1.52-2.12,2.13-.27,.57,.01,.75,.43,.67Z"/>
      <path class="cls-1" d="M73.5,134.53c-.06,.14-.01,.2,.06,.19,.09-.01,.22-.12,.35-.28,.13-.14,.33-.48,.39-.59,.49-.99,.42-1.47-.18-1.37-.81,.14-2.28,1.42-3.57,2.68-.32,.31-.71,.71-1.15,1.18,.69-.87,1.37-1.68,1.59-2.07,.34-.65-.14-1-.5-.94-.29,.05-.6,.19-.85,.56-.94,1.36-1.84,2.57-2.79,3.83-1.13,1.15-3.51,3.43-4.18,3.54-.2,.04-.2-.13-.08-.4,.25-.55,1.03-1.7,1.35-2.16,1.14-1.66,2.05-2.77,3.22-4.32,1.45-.52,3.18-1.31,3.81-1.72,.38-.26,.48-.41,.51-.49,.07-.17-.08-.17-.36-.07-.73,.31-1.79,.62-2.85,.82,.56-.74,1.21-1.63,1.42-2.08,.23-.52-.16-1-.58-.93-.45,.08-.74,.45-1.14,1.08-.53,.78-.98,1.44-1.48,2.14-.23,.02-.49,.03-.68,.11-.3,.13-.55,.46-.69,.77-.08,.16-.13,.31-.15,.44-.03,.27,.06,.4,.26,.42-.85,1.17-1.73,2.39-2.47,3.49-1.23,1.37-3.59,3.62-4.22,3.73-.11,.02-.05-.19,.13-.58,.43-.87,1.47-2.29,2.34-3.41,.46-.57,1.4-1.44,1.61-1.88,.33-.69-.15-.96-.55-.9-.66,.12-1.57,1.34-1.97,1.87-.88,1.17-2.21,2.98-2.87,4.36-.58,1.17-.65,2.07,.27,1.9,.7-.13,2.7-1.87,4.18-3.38-.15,.25-.28,.49-.38,.69-.62,1.28-.61,2.06,.31,1.9,.7-.12,2.34-1.53,3.76-2.91-.22,.32-.42,.64-.57,.93-.36,.64-.22,1.38,.17,1.32,.3-.05,.79-.54,1.05-.96,.6-.89,1.87-2.49,2.41-3.07,1.84-2.04,4.18-3.83,5.02-3.97,.29-.05,.15,.35,.07,.53Z"/>
      <path class="cls-9" d="M86.02,132.84c.31-.17,.72-.41,.84-.66,.08-.16-.17-.11-.48,0-.85,.32-1.98,.64-2.97,.8,1.3-1.61,2.53-3.03,3.46-4.01,.83-.87,1.3-1.14,1.72-1.21,.19-.02,.21-.1,.36,.06,.06,.05,.12,.08,.2,.06,.12-.03,.3-.17,.36-.4,.07-.32-.07-1.02-.97-.87-1.69,.29-4.15,3-6.81,6.47-.13,.03-.25,.08-.37,.16-.29,.17-.56,.49-.7,.77-.07,.15-.12,.28-.12,.39,0,.08,.03,.15,.06,.22-.44,.61-.85,1.2-1.25,1.79-1.09,1.18-2.59,2.71-3.03,2.78-.22,.04-.11-.25,.08-.63,.44-.89,1.56-2.33,2.34-3.32,.69-.85,1.7-1.82,1.91-2.24,.35-.7-.13-1.03-.54-.96-.47,.08-1.06,.71-1.53,1.25-.3,.35-.59,.69-.63,.74-.57,.73-1.92,2.29-3.15,3.54-.99,1.02-1.9,1.85-2.28,1.91-.36,.06-.16-.34-.04-.61,.36-.64,1.18-1.78,1.73-2.45,1.06-1.27,1.93-2.12,2.21-2.59,.39-.65-.06-1.15-.39-1.13-.29,.02-.71,.31-.98,.65-1.44,1.91-3.41,4.08-4.23,5.74-.51,1.01-.53,1.92,.36,1.77,1.14-.19,2.89-1.82,4.45-3.49-.28,.47-.57,.95-.81,1.45-.54,1.08-.32,1.83,.36,1.72,.62-.1,1.78-1.1,2.9-2.2-1.14,1.81-2.04,3.41-2.65,4.62-.07,.15-.14,.28-.22,.42-.2,.41-.54,1.35-.28,1.31,.34-.05,.57-.64,.78-.98,1.04-1.8,3.79-5.7,6.49-9.18,1.23-.38,2.8-1.12,3.82-1.68Z"/>
      <path class="cls-7" d="M91.74,132.32c.21-.45-.18-.73-.53-.67-.04,0-.08,.01-.1,.03,.18-.19,.3-.4,.36-.58,.16-.53-.2-1.1-.97-.99-2.02,.29-7.18,5.04-8.39,7.39-.56,1.07-.16,1.61,.38,1.55,1.17-.17,3.51-2.11,5.02-3.43-1.97,2.56-4.26,5.8-5.18,7.7-.27,.57-.73,1.46-.16,1.36,.22-.03,.31-.24,.44-.53,1.12-2.26,6.38-8.47,8.84-11.39,.14-.17,.25-.33,.3-.45Zm-4,2.39c-.98,.91-3.42,2.87-4.03,2.96-.1,.01-.11-.05-.05-.18,.81-1.55,5.18-5.57,6.39-5.75,.29-.04,.28,.22,.33,.35-.47,.43-1.92,1.96-2.63,2.62Z"/>
      <path class="cls-19" d="M105.07,127.3c.96-.19,2.76-.76,3.65-1.34,.14-.1,.28-.25,.37-.42,.1-.17,.16-.37,.19-.59,.05-.3-.11-.6-.39-.56-.11,.02-.27,.08-.41,.18-1.25,1.03-3.58,2.28-4.28,2.37-.14,.03-.26,.16-.31,.24-.12,.24,.68,.2,.83,.18,.12-.01,.23-.04,.35-.06Z"/>
      <path class="cls-4" d="M110.38,131.61c.77-.95,1.8-1.95,2.12-2.5,.41-.68,.35-1.47-.29-1.44-.74,.05-3.25,2.19-4.18,2.98-.48,.39-.95,.82-1.38,1.22,1.06-1.19,2.13-2.41,2.41-2.9,.35-.64-.14-1.06-.48-1.04-.27,.03-.59,.15-.85,.51-.74,1.04-1.43,2-2.19,2.93-.11,.13-.22,.26-.32,.39-.18,.11-.39,.3-.62,.5-1.91,1.63-4.64,3.71-5.84,3.84-.3,.03-.43-.11-.22-.55,.39-.78,1.01-1.6,1.74-2.38,.07,.17,.37,.22,.58,.2,.98-.11,4.1-2.41,4.81-3.73,.47-.88-.23-1.45-.85-1.47-.66-.02-1.87,.77-2.74,1.51-1.49,1.25-2.97,2.7-4.07,4.2-1.1,1.14-2.53,2.55-2.96,2.6-.22,.03-.1-.26,.1-.64,.46-.89,1.61-2.32,2.42-3.3,.7-.84,1.73-1.79,1.95-2.22,.37-.71-.09-1.05-.49-1-.46,.06-1.07,.68-1.54,1.22-.31,.35-.6,.68-.64,.73-.59,.72-1.96,2.26-3.21,3.49-1.01,1.01-1.93,1.82-2.3,1.87-.36,.05-.14-.36-.01-.62,.38-.64,1.22-1.77,1.79-2.43,1.08-1.25,1.97-2.09,2.26-2.56,.41-.65-.02-1.18-.35-1.17-.28,.01-.71,.28-.98,.63-1.48,1.89-3.49,4.04-4.36,5.69-.54,1.01-.59,1.94,.28,1.82,1.12-.15,2.9-1.75,4.49-3.4-.29,.47-.59,.95-.84,1.45-.57,1.08-.38,1.85,.29,1.77,.65-.08,1.93-1.17,3.13-2.33-.53,1.2,.2,1.82,.97,1.73,1.27-.15,3.85-2.04,5.57-3.49-.63,.76-1.15,1.4-1.33,1.73-.26,.49-.25,1.17,.14,1.15,.19-.02,.47-.1,.93-.62,.73-.83,1.51-1.65,1.9-2.08,1.47-1.59,4.79-4.49,5.35-4.52,.15-.01-2.47,2.79-3.71,5.07-.52,.93-.5,1.71,.26,1.64,.95-.09,3.98-3.04,5.25-4.5,.29-.32,.34-.59,.17-.57-.07,0-.22,.08-.41,.28-1.26,1.33-3.34,3.35-3.79,3.37-.13,.01-.17-.09-.04-.32,.36-.61,1.22-1.68,2.1-2.74Zm-8.04-.47c.45-.41,1.49-1.35,1.88-1.39,.06,0,.35-.07,.14,.3-.44,.82-2.31,2.19-3.16,2.55-.11,.05-.27,.12-.51,.12,.54-.56,1.12-1.1,1.64-1.58Z"/>
      <path class="cls-23" d="M144.18,86.01c2.01-6.73-4.03-1.72-4.03-1.72,2.02,2.73-4.15,13.02-4.15,13.02,0,0,6.39-5.28,8.18-11.3Z"/>
      <path class="cls-22" d="M12.9,63.5c1.25,.58,2.8,.38,3.68-.68,.39-.46,.65-1.08,.5-1.89-.42-2.25-1.59-5.69,3.2-6.1,4.39-.38-4.95,22.69-4.95,22.69,0,0-11.8,35.36,4.32,36.1,5.5,.25,12.59-12.71,24.25-44.75,11.66-32.04,21.31-50.64,24.14-46.66,1.56,2.2-.67,3.53-1.22,3.81-.75,.25-1.4,.79-1.68,1.59-.49,1.38,.23,2.9,1.61,3.39,.96,.34,1.96,.07,2.66-.57l.02,.03s.08-.09,.12-.13c.03-.03,.06-.06,.09-.1,1.14-1.42,4.07-7.14,.88-13.05-6.21-11.51-16.6-.63-27.76,27.4-10,25.09-17.39,56.83-22.48,53.1-5.09-3.74,7.7-44.52,7.7-44.52,0,0,3.87-15.98-10.81-1.72-8.46,8.23-6.36,11.07-4.27,12.05Z"/>
      <path class="cls-6" d="M85.79,6.66C90.44-1.02,80.49,.05,80.49,.05c2.15,6.02-9.38,14.62-9.38,14.62,0,0,10.51-1.12,14.68-8.01Z"/>
      <path class="cls-2" d="M72.57,16.94s7.94,3.87,13.95,.85c6.71-3.38-.81-7.03-.81-7.03-1.15,5.22-13.13,6.18-13.13,6.18Z"/>
      <path class="cls-17" d="M85.52,20.34c-2.75,3.47-12.01-.16-12.01-.16,0,0,4.5,5.76,10.07,5.68,6.21-.08,1.94-5.53,1.94-5.53Z"/>
      <path class="cls-10" d="M15.57,52.23s-7.31-9.73-4.13-14.11c0,0-7.82-3.25-5.88,4.11,1.74,6.59,10.01,10,10.01,10Z"/>
      <path class="cls-18" d="M13.59,53.99s-9.5-3.64-9.19-8.15c0,0-6.98,1.17-2.34,5.52,4.16,3.89,11.53,2.64,11.53,2.64Z"/>
      <path class="cls-8" d="M11.83,56.69s-8.39,.73-9.79-2.74c0,0-4.77,3.4,.26,4.95,4.5,1.39,9.53-2.21,9.53-2.21Z"/>
      <path class="cls-12" d="M154.81,27.4s-1.69,.44-2.46,1.08c0,0,3.37-2.62,4.41-2.6,0,0-.55-1.36-4.43,1.31,0,0,1.62-2,3.02-2.78,0,0-.29-.86-1.88-.14-.02,.01-.05,.02-.07,.03-1.53,.72-2.79,3.21-3.81,2.9-.16-.05-.25-.21-.28-.37-.18-.88-.85-3.82-1.72-3.48,0,0-.4,.3-.06,1.1,0,0,.4,1.79,.1,2.34,0,0-.73,1.36-.76,2.03,0,0,.11,.86-1.09,1.77,0,0-8.45,1.13-9.72,3.64,0,0-.51,.43-.72,.49,0,0-9.61,1.86-12.08,3.87,0,0-3.6-3.75-4.92-4.2,0,0-.09-2.39-1.83-2,0,0-.29-.03-.37,.04l-.07,.07s-.35-.05-.4,0c-.05,.05-.07-.07-.07-.07,0,0-.35,.05-.4-.03l-.05-.09s-.44-1.07-.61-.91c0,0-1.48,1.7-1.78,1.63,0,0-1.74,.03-3.07,2.22,0,0-3.76,1.95-4.36,6.24,0,0,1.55-.35-.32,4.9,0,0-.29,.7,.39,1.11,0,0,.5-1.64,1.35-1.81,0,0-.72,1.37,.52,1.8,0,0,1.05-1.26,2.03-.99,0,0-.64,3.56,.97,4.89,0,0-.27-1.89,1.45-2.46,0,0,.23,2.76-.33,3.14,0,0,3.4-1.07,4.3-3.94,0,0,1.13,.73,.85,1.18,0,0,1.75-1.57,1.05-4.04,0,0,0-.01,0-.02,0,0,.23-.82,2.12,1.87,.14,.2,.27,.4,.4,.59l-.02,.03s2.13,4.14-.7,7.14c-.22,.18-.91,.74-1.62,1.19-.21,.11-.42,.23-.64,.38-.02,0-.04,.02-.05,.03-.07,.04-.12,.07-.16,.11-1.2,.85-2.43,2.3-2.54,4.73,0,0-7.11,2.69-11.18,7.58,0,0-.49,.63-.96,.82-.47,.19-1.03,.11-1.03,.11,0,0-5.44-.98-9.84,5.01,0,0-4.62,4.68-5.22,4.7,0,0-3.52-.82-3.89-.31,0,0-.9,.23-1.12,2.15,0,0,0,0-.01,.02-.51,1.14-2.53,2.7-4.4,2.72-2.35,.03-1.85,.82-.99,1.2,.86,.39,5.13-.47,6.64-.98,.35-.11,.73-.25,1.14-.43,.19-.08,.33-.14,.33-.14h0c1.5-.68,3.35-1.74,5.48-2.95,.01,0,.03-.02,.04-.02,.54-.31,.97-.56,1.29-.77,.92-.54,1.92-1.11,2.97-1.69h0s0,0,0,0c.11-.06,.21-.12,.32-.17,1.79-.94,10.77-5.2,22.9-2.98,.85,.15,1.68,.4,2.5,.67,3.68,1.24,14.85,4.62,14.72,0,0-.05,0-.1,0-.14,0,0,0,0,0,0h0c0-.27-.03-.59-.11-.96-.34-1.25-.87-2.43-.87-2.43-.88-2.13-2.55-5.89-4.54-8.88,0,0,0,0,0,0-1.69-2.91-.59-5.61-.09-6.56,.06-.11,.13-.22,.19-.34,0,0,.01-.02,.01-.02h0c.94-1.76,1.83-4.49,1.7-8.52,0,0,2.1-1.94,.07-5.47-.19-.32,.01-.73,.37-.81,1.67-.36,7.63-.93,7.99-1.05,0,0,4.84-1.57,5.9-1.94,0,0,2.65-1.56,5.13-.96,0,0,.17-.2-.25-.31-.57-.15-1.66-.15-2.08-.19,0,0,1.09-.19,2.61-.11,0,0-.09-.23-.41-.29-.75-.14-1.96-.17-2.42-.11,.61-.28,2.29-.46,2.29-.46,0,0,.08-.24-.26-.27-.68-.05-1.9,.05-2.55,.2,.22-.11,2.06-.63,2.06-.63,0,0-.18-.38-1.88,.04,0,0-.55,.14-1.05,.23-.61,.12-.61-.21-.56-.47,.02-.06,.07-.28,.07-.28,.35-1.21-.32-1.14-.32-1.14,0,.37-.45,1.73-.46,1.75-.06,.15-.11,.29-.16,.42,0,0-.56,1.07-1.87,1.21-1.54,.18-4.21,.44-4.97,.26,0,0-1.22-.17-.07-.74,0,0,5.25-1.59,11.14-5.12,0,0,3.09-1.68,5.71-1.54,0,0,.71-.03,.74-.21,.03-.15-.54-.28-1.13-.31,0,0-1.07-.12-1.16-.22,0,0-.46-.3-.19-.41,0,0,2.35-1.02,4.01-1.08,0,0,.1-.79-1.88-.57Zm-33.46,43.39s-.03,0-.05,0c-4.98-.02-5.12-.8-4.64-1.32,.2-.14,.42-.3,.66-.48,0,0,0,0,0,0h0c1.08-.8,2.37-1.87,2.2-2.31,0,0,3.53,3.85,4.45,4.2,0,0-1.15-.08-2.62-.08Z"/>
      <path class="cls-16" d="M143.32,103.26s-24.11,2.97-33.53,4.4c0,0-29.49,4.09-57.63,9.82-.19,.04-.16,.33,.03,.32,8.54-.41,40.82-1.92,53.1-1.58-69.8,6.07-100.25,13.82-100.25,13.82-4.13,1.31-1.32,1.46,.3,.93,1.61-.52,.16,.56-1.73,1.31-1.89,.75,.2,.53,1.13,.45,.93-.08-1.7,.87-2.41,1.29s3.7-.71,.82,.36c-2.88,1.08-2.67,2.12-2.67,2.12,43.4-12.86,137.97-22.8,137.97-22.8-1.96,.13-3.85,.26-5.76,.4l5.67-.59s.02-.1-.11-.09c-3.14,.05-42.11,.68-57.25,1.2,0,0,15.83-3.17,33.39-5.74,4.87-.71,27.98-4.45,28.96-4.75,0,0,.65-.26,1.08-.54,.73-.47-1.1-.32-1.1-.32Z"/>
    </g>
  </g>
</svg>