<?xml version="1.0" encoding="UTF-8"?>
<svg id="Capa_2" data-name="Capa 2" xmlns="http://www.w3.org/2000/svg" viewBox="0 0 203.71 134.95">
  <defs>
    <style>
      .cls-1 {
        fill: #3c3c3b;
      }

      .cls-2 {
        fill: #ea3f3f;
      }
    </style>
  </defs>
  <g id="Capa_1-2" data-name="Capa 1">
    <g>
      <g>
        <path class="cls-2" d="M10.89,89.61c-1.4,0-2.69-.34-3.86-1.02-1.18-.68-2.26-1.7-3.25-3.07l-3.78,4.55c1.23,1.67,2.8,2.95,4.73,3.84,1.93,.89,4.03,1.33,6.31,1.33,3.92,0,6.91-1.04,8.97-3.12,2.06-2.08,3.09-5.23,3.09-9.46v-23.72H3.73v5.57h12.73v18.51c0,4.4-1.86,6.59-5.57,6.59Z"/>
        <path class="cls-2" d="M40.24,86.73c0,1.09-.19,2-.57,2.74-.38,.74-.9,1.3-1.57,1.66s-1.45,.55-2.36,.55c-1.23,0-2.18-.36-2.85-1.09-.67-.73-1-1.83-1-3.31v-8.88h-3.85v9.4c0,1.64,.3,3.01,.89,4.08,.6,1.08,1.43,1.88,2.5,2.4,1.07,.52,2.3,.79,3.7,.79,1.27,0,2.45-.28,3.51-.85,.73-.39,1.3-.94,1.79-1.56v2.19h3.67v-16.46h-3.85v8.32Z"/>
        <path class="cls-2" d="M56.78,78.22c-1.32,0-2.58,.17-3.81,.51-1.22,.34-2.28,.85-3.16,1.53l1.51,2.81c.62-.51,1.37-.91,2.27-1.2,.89-.29,1.8-.43,2.73-.43,1.38,0,2.4,.31,3.08,.94,.68,.63,1.02,1.51,1.02,2.64v.25h-4.25c-1.66,0-3,.22-4.01,.65-1.01,.43-1.73,1.02-2.17,1.76-.44,.74-.66,1.57-.66,2.5s.25,1.79,.76,2.54c.5,.75,1.22,1.34,2.14,1.76,.92,.42,2,.63,3.24,.63,1.46,0,2.67-.27,3.62-.8,.69-.39,1.17-.92,1.56-1.53v2.12h3.64v-9.65c0-2.38-.65-4.15-1.96-5.29-1.31-1.14-3.15-1.71-5.53-1.71Zm3.64,11.5c-.33,.84-.87,1.48-1.62,1.91-.75,.43-1.6,.65-2.54,.65s-1.76-.21-2.31-.62c-.55-.41-.83-.97-.83-1.67,0-.62,.23-1.13,.68-1.56,.45-.42,1.33-.63,2.65-.63h3.98v1.91Z"/>
        <path class="cls-2" d="M87.37,112.68c-.66-.35-1.39-.62-2.18-.82-.79-.2-1.58-.35-2.38-.46-.8-.1-1.52-.23-2.18-.39-.65-.16-1.18-.37-1.58-.64-.4-.27-.61-.67-.61-1.21,0-.58,.31-1.07,.93-1.45s1.57-.57,2.85-.57c.85,0,1.71,.1,2.58,.29s1.72,.55,2.58,1.06l1.62-3.2c-.81-.49-1.83-.88-3.07-1.15-1.24-.27-2.46-.4-3.67-.4-1.62,0-3.02,.23-4.2,.69-1.18,.46-2.1,1.11-2.75,1.96-.65,.84-.98,1.84-.98,2.98,0,1.03,.2,1.87,.61,2.49,.4,.63,.93,1.13,1.58,1.5,.65,.37,1.38,.65,2.17,.84,.8,.19,1.59,.34,2.39,.46,.8,.11,1.52,.24,2.18,.37,.65,.14,1.18,.33,1.58,.59,.4,.26,.61,.64,.61,1.13,0,.61-.3,1.09-.89,1.45-.6,.36-1.56,.54-2.88,.54-1.12,0-2.25-.17-3.37-.51-1.12-.34-2.09-.76-2.9-1.28l-1.62,3.2c.81,.56,1.9,1.04,3.29,1.43,1.38,.39,2.83,.59,4.33,.59,1.69,0,3.14-.23,4.35-.69,1.21-.46,2.15-1.11,2.82-1.94,.66-.83,1-1.81,1-2.93,0-1.01-.2-1.83-.61-2.46-.4-.63-.94-1.12-1.6-1.47Z"/>
        <path class="cls-2" d="M107.9,104.87c-1.36-.76-2.93-1.15-4.7-1.15-1.53,0-2.89,.33-4.08,.99-.73,.4-1.35,.95-1.89,1.61v-2.41h-4.01v24.55h4.22v-8.77c.52,.59,1.1,1.08,1.77,1.46,1.2,.67,2.53,1.01,4,1.01,1.78,0,3.34-.38,4.7-1.15,1.36-.76,2.44-1.84,3.24-3.22,.8-1.38,1.2-3.01,1.2-4.87s-.4-3.48-1.2-4.85c-.8-1.37-1.88-2.44-3.24-3.2Zm-.56,11.06c-.47,.85-1.11,1.51-1.9,1.95-.8,.45-1.7,.67-2.71,.67s-1.92-.22-2.73-.67c-.81-.45-1.45-1.1-1.92-1.95s-.71-1.85-.71-3,.24-2.17,.71-3.02c.47-.84,1.11-1.49,1.92-1.94,.81-.45,1.72-.67,2.73-.67s1.92,.23,2.71,.67c.8,.45,1.43,1.1,1.9,1.94,.47,.84,.71,1.85,.71,3.02s-.24,2.15-.71,3Z"/>
        <path class="cls-2" d="M140.17,104.57c-1.14-.56-2.42-.84-3.86-.84-1.57,0-2.96,.31-4.17,.93-.84,.43-1.48,1.03-2.04,1.72v-2.44h-4.01v18h4.21v-9.1c0-1.21,.21-2.22,.62-3.02s1.01-1.4,1.77-1.8c.76-.41,1.64-.61,2.63-.61,1.35,0,2.4,.39,3.15,1.18,.75,.79,1.13,1.98,1.13,3.57v9.78h4.21v-10.32c0-1.82-.33-3.31-.98-4.47-.65-1.16-1.55-2.02-2.68-2.58Z"/>
        <path class="cls-2" d="M162.29,104.91c-1.45-.79-3.11-1.18-4.97-1.18s-3.48,.39-4.92,1.18c-1.44,.79-2.57,1.87-3.41,3.25-.83,1.38-1.25,2.97-1.25,4.77s.42,3.36,1.25,4.75c.83,1.39,1.97,2.49,3.41,3.29,1.44,.8,3.08,1.2,4.92,1.2s3.52-.4,4.97-1.2c1.45-.8,2.59-1.89,3.41-3.29,.82-1.39,1.23-2.98,1.23-4.75s-.41-3.42-1.23-4.79c-.82-1.37-1.95-2.45-3.41-3.24Zm-.3,11.03c-.46,.85-1.1,1.51-1.9,1.95-.81,.45-1.73,.67-2.77,.67s-1.92-.22-2.71-.67c-.8-.45-1.43-1.1-1.91-1.95-.47-.85-.71-1.85-.71-3s.24-2.17,.71-3.02c.47-.84,1.11-1.49,1.91-1.94,.8-.45,1.71-.67,2.75-.67s1.92,.23,2.73,.67c.81,.45,1.44,1.1,1.9,1.94,.46,.84,.69,1.85,.69,3.02s-.23,2.15-.69,3Z"/>
        <polygon class="cls-2" points="184.45 106.59 184.45 103.93 169.42 103.93 169.42 107.3 179.11 107.3 169.21 119.27 169.21 121.93 184.76 121.93 184.76 118.56 174.56 118.56 184.45 106.59"/>
        <path class="cls-2" d="M201.57,105.6c-1.43-1.25-3.44-1.87-6.05-1.87-1.44,0-2.83,.18-4.16,.56-1.34,.37-2.49,.93-3.46,1.67l1.65,3.07c.67-.56,1.5-1,2.48-1.31,.98-.31,1.97-.47,2.98-.47,1.51,0,2.63,.34,3.37,1.03s1.11,1.65,1.11,2.88v.27h-4.65c-1.82,0-3.28,.24-4.38,.71s-1.89,1.11-2.38,1.92c-.48,.81-.72,1.72-.72,2.73s.28,1.96,.83,2.78c.55,.82,1.33,1.46,2.34,1.92,1.01,.46,2.19,.69,3.54,.69,1.59,0,2.92-.29,3.96-.88,.73-.41,1.29-.93,1.7-1.57v2.21h3.98v-10.55c0-2.61-.71-4.53-2.14-5.78Zm-2.07,10.7c-.36,.92-.95,1.62-1.77,2.09-.82,.47-1.75,.71-2.78,.71s-1.92-.23-2.53-.67c-.61-.45-.91-1.06-.91-1.82,0-.67,.25-1.24,.74-1.7,.49-.46,1.46-.69,2.9-.69h4.35v2.09Z"/>
        <path class="cls-2" d="M73.84,86.54c0-1.11,.19-2.03,.57-2.76,.38-.73,.92-1.28,1.62-1.65,.7-.37,1.5-.55,2.4-.55,1.23,0,2.19,.36,2.88,1.08,.69,.72,1.03,1.81,1.03,3.27v8.94h3.85v-9.43c0-1.66-.3-3.02-.89-4.08-.6-1.06-1.41-1.84-2.45-2.36-1.04-.51-2.21-.77-3.53-.77-1.44,0-2.71,.28-3.81,.85-.76,.39-1.35,.94-1.86,1.57v-2.23h-3.67v16.46h3.85v-8.32Z"/>
        <path class="cls-2" d="M116.35,105.88v16.05h4.21v-16.05c-.67,.16-1.37,.27-2.11,.27s-1.43-.11-2.11-.28Z"/>
        <path class="cls-2" d="M37.92,134.95c.94,0,1.87-.07,2.8-.14v-34.59H.2c1.6,19.44,17.86,34.73,37.72,34.73Z"/>
        <path class="cls-2" d="M151.16,72.8c15.01,.94,27.98-10.46,28.96-25.44,.98-15.01-10.51-28.05-25.56-29.02-14.93-.96-28.04,10.57-28.97,25.47-.94,15.06,10.52,28.06,25.57,28.99Zm-18.91-28.59c.75-11.3,10.62-19.92,21.97-19.19,11.31,.72,19.96,10.59,19.22,21.92-.74,11.33-10.57,19.93-21.95,19.19-11.32-.73-20-10.62-19.25-21.92Z"/>
        <path class="cls-2" d="M152.78,58.68c6.8,.01,12.39-4.93,13.15-11.64,.25-2.2-.89-3.88-2.84-4.14-1.88-.26-3.38,1-3.74,3.15-.65,3.85-2.85,5.8-6.78,6.02-2.31,.13-3.72,1.45-3.64,3.41,.08,1.98,1.55,3.21,3.85,3.21Z"/>
      </g>
      <g>
        <polygon class="cls-1" points="51.4 121.21 66.35 121.21 66.35 116.47 51.4 116.47 51.4 108.42 68.25 108.42 68.25 103.6 45.64 103.6 45.64 134.57 68.87 134.57 68.87 129.75 51.4 129.75 51.4 121.21"/>
        <rect class="cls-1" x="73.8" y="129.75" width="129.91" height="4.82"/>
        <path class="cls-1" d="M142.8,94.44c.73,.69,1.76,1.04,3.1,1.04,.52,0,1.02-.07,1.51-.21,.49-.14,.9-.34,1.23-.62l-.8-2.03c-.43,.33-.96,.5-1.6,.5-.53,0-.95-.16-1.24-.48-.3-.32-.44-.77-.44-1.35v-5.79h3.26v-2.28h-3.26v-2.78h-2.85v2.78h-2.01v2.28h2.01v5.86c0,1.35,.36,2.38,1.09,3.07Z"/>
        <path class="cls-1" d="M159.42,83.8c-.98-.53-2.1-.8-3.37-.8s-2.36,.27-3.33,.8c-.97,.53-1.74,1.27-2.3,2.2-.56,.94-.84,2.01-.84,3.23s.28,2.27,.84,3.22c.56,.94,1.33,1.68,2.3,2.22,.97,.54,2.08,.81,3.33,.81s2.38-.27,3.37-.81c.98-.54,1.75-1.28,2.3-2.22,.56-.94,.83-2.02,.83-3.22s-.28-2.31-.83-3.24c-.55-.93-1.32-1.66-2.3-2.19Zm-.21,7.46c-.31,.58-.74,1.02-1.29,1.32-.55,.3-1.17,.46-1.87,.46s-1.3-.15-1.84-.46c-.54-.3-.97-.74-1.29-1.32-.32-.58-.48-1.26-.48-2.03s.16-1.47,.48-2.04c.32-.57,.75-1.01,1.29-1.31,.54-.3,1.16-.46,1.86-.46s1.3,.15,1.85,.46c.55,.3,.98,.74,1.29,1.31,.31,.57,.47,1.25,.47,2.04s-.16,1.45-.47,2.03Z"/>
        <path class="cls-1" d="M177.29,95.32v-6.98c0-1.23-.22-2.24-.66-3.02-.44-.78-1.05-1.36-1.81-1.75-.77-.38-1.64-.57-2.61-.57-1.07,0-2,.21-2.82,.63-.57,.29-1,.7-1.38,1.16v-1.65h-2.71v12.18h2.85v-6.16c0-.82,.14-1.5,.42-2.04,.28-.54,.68-.95,1.2-1.22,.52-.27,1.11-.41,1.78-.41,.91,0,1.62,.27,2.13,.8,.51,.53,.76,1.34,.76,2.42v6.62h2.85Z"/>
        <path class="cls-1" d="M182.36,81.13c.55,0,.99-.17,1.32-.51,.33-.34,.5-.76,.5-1.27,0-.47-.17-.86-.51-1.18-.34-.31-.78-.47-1.31-.47s-.97,.16-1.31,.49c-.34,.33-.51,.73-.51,1.22s.17,.87,.51,1.21c.34,.33,.78,.5,1.31,.5Z"/>
        <rect class="cls-1" x="180.92" y="83.14" width="2.85" height="12.18"/>
        <path class="cls-1" d="M196.36,83.8c-.98-.53-2.1-.8-3.37-.8s-2.36,.27-3.33,.8c-.97,.53-1.74,1.27-2.3,2.2-.56,.94-.84,2.01-.84,3.23s.28,2.27,.84,3.22c.56,.94,1.33,1.68,2.3,2.22,.97,.54,2.08,.81,3.33,.81s2.38-.27,3.37-.81c.98-.54,1.75-1.28,2.3-2.22,.56-.94,.83-2.02,.83-3.22s-.28-2.31-.83-3.24c-.55-.93-1.32-1.66-2.3-2.19Zm-.21,7.46c-.31,.58-.74,1.02-1.29,1.32-.55,.3-1.17,.46-1.87,.46s-1.3-.15-1.84-.46c-.54-.3-.97-.74-1.29-1.32-.32-.58-.48-1.26-.48-2.03s.16-1.47,.48-2.04c.32-.57,.75-1.01,1.29-1.31,.54-.3,1.16-.46,1.86-.46s1.3,.15,1.85,.46c.55,.3,.98,.74,1.29,1.31,.31,.57,.47,1.25,.47,2.04s-.16,1.45-.47,2.03Z"/>
        <path class="cls-1" d="M118.45,92.95c-1.58,0-2.9,.5-3.94,1.5-1.05,1.01-1.59,2.27-1.59,3.76s.53,2.7,1.58,3.73c1.04,1.01,2.37,1.53,3.95,1.53s2.97-.53,3.99-1.58c1.02-1.04,1.53-2.33,1.53-3.84s-.54-2.7-1.61-3.67c-1.04-.94-2.35-1.42-3.92-1.42Zm2.28,7.25c-.56,.58-1.31,.86-2.28,.86s-1.69-.28-2.27-.84c-.58-.57-.86-1.21-.86-2.01s.27-1.47,.85-2.02c.58-.56,1.33-.83,2.28-.83s1.71,.26,2.3,.8c.56,.51,.83,1.12,.83,1.9,0,.87-.28,1.58-.85,2.16Z"/>
        <path class="cls-1" d="M99.77,88.56h14.57l.96,2.24c.97-.37,2.02-.56,3.14-.56,.81,0,1.57,.13,2.31,.32l-11.01-24.39h-5.33l-13.1,29.12h5.57l2.88-6.74Zm7.27-16.99l5.47,12.75h-10.93l5.45-12.75Z"/>
        <path class="cls-1" d="M137.69,95.32v-6.98c0-1.23-.22-2.24-.66-3.02-.44-.78-1.05-1.36-1.81-1.75-.77-.38-1.64-.57-2.61-.57-1.07,0-2.01,.21-2.82,.63-.57,.29-1,.7-1.38,1.16v-1.65h-2.71v11.16c.19,.33,.35,.67,.49,1.02h2.37v-6.16c0-.82,.14-1.5,.42-2.04,.28-.54,.68-.95,1.2-1.22,.52-.27,1.11-.41,1.78-.41,.91,0,1.62,.27,2.13,.8,.51,.53,.76,1.34,.76,2.42v6.62h2.85Z"/>
        <path class="cls-1" d="M187.02,23.65c2.24,.07,4.01-1.57,4.11-3.81,.1-2.2-1.57-4.02-3.79-4.13-2.18-.11-4.05,1.61-4.13,3.8-.08,2.19,1.65,4.07,3.81,4.14Z"/>
        <path class="cls-1" d="M103.2,60.9h8.31c-.52-2-.93-4.05-1.19-6.17-2.23-18.39,9.19-37.22,26.53-43.74,11.44-4.3,22.72-3.97,33.83,1.18,2.44,1.13,4.73,.45,5.77-1.69,1.05-2.16,.13-4.38-2.3-5.54C165.15,.67,155.67-.86,145.82,.46c-27,3.6-46.06,27.67-43.52,54.85,.18,1.9,.5,3.76,.9,5.6Z"/>
        <path class="cls-1" d="M189.9,70.06c-.96,1.87-2.09,3.64-3.32,5.31l.78,.22,7.26,2.03c4.61-7.11,7.53-15.51,8.14-24.71,.33-5.82-.42-12.11-2.44-18.23-.91-2.76-2.83-4.02-5.16-3.31-2.43,.74-3.34,2.9-2.46,5.73,3.56,11.36,2.66,22.35-2.79,32.95Z"/>
      </g>
    </g>
  </g>
</svg>