<?xml version="1.0" encoding="utf-8"?>
<!-- Generator: Adobe Illustrator 27.6.1, SVG Export Plug-In . SVG Version: 6.00 Build 0)  -->
<svg version="1.1" id="Capa_2_00000131350997929314510650000002186118689569500041_"
	 xmlns="http://www.w3.org/2000/svg" xmlns:xlink="http://www.w3.org/1999/xlink" x="0px" y="0px" viewBox="0 0 363.8 73"
	 style="enable-background:new 0 0 363.8 73;" xml:space="preserve">
<style type="text/css">
	.st0{fill:#FFFFFF;}
</style>
<g id="Capa_1-2">
	<g>
		<g>
			<path class="st0" d="M89.9,15.8h11.4v4.5H95v3.1h6.1v4.5H95v3.5h6.3v4.5H89.9V15.8z"/>
			<path class="st0" d="M123.4,28.2l-0.1-12.3h5v20.2h-4.5L116,23.9l0.1,12.2h-4.9V15.8h4.4L123.4,28.2L123.4,28.2z"/>
			<path class="st0" d="M153,22.6c-0.3-0.5-0.6-1-1.1-1.4c-0.9-0.7-2-1.3-3.4-1.3c-2.5,0-5.5,1.9-5.5,5.9c0,4.2,3,6.1,5.6,6.1
				c1.3,0,2.4-0.3,3.2-0.9c0.8-0.5,1.4-1.4,1.7-2.4h-6v-4.1h12c0.1,1.5-0.1,3.8-0.9,5.8c-2,4.5-6.5,6.1-9.8,6.1
				c-6.1,0-10.7-4.8-10.7-10.6s4.9-10.4,10.8-10.4c4.8,0,9,3.2,10.1,7.2C158.8,22.6,153,22.6,153,22.6z"/>
			<path class="st0" d="M168.9,15.8h6.6c3.2,0,5.1,0.6,6.3,1.5c1.7,1.3,2.5,3.3,2.5,5.5c0,1.6-0.4,2.8-1,3.7
				c-0.7,1.1-1.7,1.8-2.6,2.2l4.2,7.4h-5.3l-5.3-9.8h0.9c1.3,0,2.4-0.1,3.1-0.5c0.6-0.4,1.1-1.4,1.1-2.5s-0.5-1.9-1.2-2.4
				c-0.6-0.4-1.4-0.5-2.1-0.5h-1.9v15.7h-5.2L168.9,15.8L168.9,15.8z"/>
			<path class="st0" d="M197.7,36.1h-5.6l8-20.2h4.5l7.8,20.2h-5.7l-1-2.9h-7.1L197.7,36.1L197.7,36.1z M202.1,22l-2.2,7.1h4.5
				C204.3,29,202.1,22,202.1,22z"/>
			<path class="st0" d="M233.4,28.2l-0.1-12.3h4.9v20.2h-4.5L226,23.9l0.1,12.2h-4.9V15.8h4.4L233.4,28.2L233.4,28.2z"/>
			<path class="st0" d="M252.8,36.1h-5.6l8-20.2h4.5l7.8,20.2h-5.7l-1-2.9h-7.1L252.8,36.1L252.8,36.1z M257.2,22L255,29h4.5
				C259.5,29,257.2,22,257.2,22z"/>
			<path class="st0" d="M283,15.8c3.7,0,5.1,0.6,6.2,1.5c1.6,1.3,2.4,3.3,2.4,5.4s-0.9,4.2-2.1,5.3c-1.4,1.2-2.8,1.8-5.9,1.8h-2v6.3
				h-5.2V15.8H283L283,15.8z M281.5,25.2h1.9c0.5,0,1.3,0,2-0.3s1.2-0.9,1.2-2.1s-0.6-1.8-1.3-2.1s-1.6-0.3-2.1-0.3h-1.7L281.5,25.2
				L281.5,25.2z"/>
			<path class="st0" d="M300.6,36.1V15.8h5.2v7.6h6.6v-7.6h5.2v20.2h-5.2V28h-6.6v8.1H300.6z"/>
			<path class="st0" d="M328.1,15.8h5.2v20.2h-5.2V15.8z"/>
			<path class="st0" d="M363.8,28.5c-1.2,4.8-5.3,8-10.2,8c-6.3,0-10.7-5.1-10.7-10.5c0-5.2,4-10.5,10.6-10.5s9.7,4.9,10.3,8.1h-5.4
				c-0.6-1.5-2.1-3.5-4.9-3.5c-3.5,0-5.4,3-5.4,5.9c0,3.1,2.1,6,5.4,6s4.5-2.7,4.9-3.4L363.8,28.5L363.8,28.5z"/>
		</g>
		<g>
			<path class="st0" d="M92,58.5c0.2,2.1,1.8,2.6,2.6,2.6c1.3,0,2.6-1,2.6-2.4c0-1.8-1.5-2.2-3-2.7c-1-0.3-3.3-1-3.3-3.4
				c0-2.3,1.8-3.5,3.8-3.5c1.6,0,3.4,0.9,3.6,3.3h-1.4c-0.2-0.8-0.6-2.1-2.3-2.1c-1.3,0-2.3,0.9-2.3,2.2c0,1.5,1.2,1.9,3.2,2.6
				c1.2,0.5,3.1,1.1,3.1,3.5c0,2.1-1.6,3.7-3.9,3.7c-2.1,0-3.9-1.3-4-3.8H92L92,58.5z"/>
			<path class="st0" d="M104.1,55.7c0-3.9,3.1-6.6,6.7-6.6s6.7,2.9,6.7,6.6s-2.9,6.6-6.7,6.6S104.1,59.3,104.1,55.7L104.1,55.7z
				 M105.5,55.6c0,3,2.3,5.3,5.2,5.3s5.2-2.4,5.2-5.3s-2.2-5.3-5.2-5.3S105.5,52.6,105.5,55.6C105.5,55.6,105.5,55.6,105.5,55.6z"/>
			<path class="st0" d="M123.7,49.2h1.4v11.5h4.9V62h-6.3L123.7,49.2L123.7,49.2z"/>
			<path class="st0" d="M137.1,49.2v8.1c0,1,0,1.7,0.6,2.6c0.4,0.6,1.3,1.1,2.2,1.1s1.8-0.4,2.2-1c0.6-0.8,0.6-1.6,0.6-2.6v-8.1h1.4
				v8.1c0,1.5-0.2,3-1.4,3.9c-0.7,0.6-1.7,1-2.8,1c-0.9,0-2-0.3-2.8-1c-1.4-1.1-1.4-2.5-1.4-3.9v-8.1H137.1L137.1,49.2z"/>
			<path class="st0" d="M162.9,58.6c-0.8,2-3.1,3.7-5.9,3.7c-3.8,0-6.7-2.9-6.7-6.6s2.8-6.6,6.6-6.6c3.2,0,5.1,2.1,5.9,3.7h-1.5
				c-0.4-0.8-1.9-2.5-4.4-2.5c-3,0-5.2,2.4-5.2,5.3S154,61,157,61c2.7,0,4-1.9,4.4-2.4L162.9,58.6L162.9,58.6z"/>
			<path class="st0" d="M169.1,49.2h1.4V62h-1.4V49.2z"/>
			<path class="st0" d="M176.8,55.7c0-3.9,3.1-6.6,6.7-6.6s6.7,2.9,6.7,6.6s-2.9,6.6-6.7,6.6S176.8,59.3,176.8,55.7L176.8,55.7z
				 M178.2,55.6c0,3,2.3,5.3,5.2,5.3s5.2-2.4,5.2-5.3s-2.2-5.3-5.2-5.3S178.2,52.6,178.2,55.6C178.2,55.6,178.2,55.6,178.2,55.6z"/>
			<path class="st0" d="M205.3,59.9l0-10.7h1.4V62h-1.4l-7.6-10.8l0,10.8h-1.4V49.2h1.4L205.3,59.9L205.3,59.9z"/>
			<path class="st0" d="M213.6,49.2h7.1v1.3H215v4.4h5.6v1.3H215v4.5h5.7V62h-7.1V49.2L213.6,49.2z"/>
			<path class="st0" d="M228,58.5c0.2,2.1,1.8,2.6,2.6,2.6c1.3,0,2.6-1,2.6-2.4c0-1.8-1.5-2.2-3-2.7c-1-0.3-3.3-1-3.3-3.4
				c0-2.3,1.9-3.5,3.8-3.5c1.6,0,3.4,0.9,3.6,3.3h-1.4c-0.1-0.8-0.6-2.1-2.3-2.1c-1.3,0-2.3,0.9-2.3,2.2c0,1.5,1.2,1.9,3.2,2.6
				c1.2,0.5,3.1,1.1,3.1,3.5c0,2.1-1.6,3.7-3.9,3.7c-2.1,0-3.9-1.3-4-3.8H228L228,58.5z"/>
			<path class="st0" d="M250,49.2h3.8c1.8,0,3.7,0.4,5,1.9c1,1.1,1.5,2.6,1.5,4.5c0,3.8-2.2,6.4-6.5,6.4H250L250,49.2L250,49.2z
				 M251.4,60.8h2.5c3.3,0,5-2,5-5.1c0-1.5-0.4-2.8-1.2-3.7c-0.8-0.9-2-1.4-3.7-1.4h-2.5L251.4,60.8L251.4,60.8z"/>
			<path class="st0" d="M266.7,49.2h1.4V62h-1.4V49.2z"/>
			<path class="st0" d="M285.5,52.5c-0.4-0.5-0.9-1-1.4-1.4c-0.8-0.6-1.8-0.9-3-0.9c-2.8,0-5.2,2.1-5.2,5.3s2.5,5.4,5.2,5.4
				c1.4,0,2.5-0.5,3.4-1.2c0.9-0.7,1.5-1.7,1.7-2.7h-6.4V56h8c0,0.7-0.2,1.7-0.6,2.5c-1.1,2.4-3.7,3.8-6.2,3.8
				c-3.7,0-6.7-2.9-6.7-6.6s3-6.6,6.7-6.6c2.6,0,5,1.5,6,3.5L285.5,52.5L285.5,52.5z"/>
			<path class="st0" d="M294,49.2h1.4V62H294V49.2z"/>
			<path class="st0" d="M304.3,50.5h-3.1v-1.3h7.7v1.3h-3.2V62h-1.4V50.5z"/>
			<path class="st0" d="M313.7,62h-1.5l5.3-12.8h1.4l5.3,12.8h-1.5l-1.5-3.6h-6L313.7,62L313.7,62z M318.1,50.8l-2.5,6.4h5.1
				L318.1,50.8z"/>
			<path class="st0" d="M329.9,49.2h1.4v11.5h4.9V62h-6.3L329.9,49.2L329.9,49.2z"/>
			<path class="st0" d="M341.8,49.2h7.1v1.3h-5.7v4.4h5.6v1.3h-5.6v4.5h5.7V62h-7.1V49.2L341.8,49.2z"/>
			<path class="st0" d="M356.3,58.5c0.2,2.1,1.8,2.6,2.5,2.6c1.3,0,2.5-1,2.5-2.4c0-1.8-1.5-2.2-3-2.7c-1-0.3-3.3-1-3.3-3.4
				c0-2.3,1.9-3.5,3.8-3.5c1.6,0,3.4,0.9,3.6,3.3h-1.4c-0.1-0.8-0.6-2.1-2.3-2.1c-1.3,0-2.3,0.9-2.3,2.2c0,1.5,1.2,1.9,3.2,2.6
				c1.2,0.5,3.1,1.1,3.1,3.5c0,2.1-1.6,3.7-4,3.7c-2.1,0-3.9-1.3-4-3.8H356.3L356.3,58.5z"/>
		</g>
		<g>
			<path class="st0" d="M69.8,50.9c-1.3-1.1-3.1-2.7-4.2-4.1c2.6-8-0.6-15.8-3.7-20.9c-3.1-5.1-8.5-8.5-14.5-8.7
				c-3-0.1-6.2,0.5-9,2.7c-6.2,4.9-4,10.1-2.7,12.3l0,0c0,0,0.1,0.1,0.1,0.2c0.1,0.1,0.1,0.2,0.2,0.3c2.4,3.6,3.3,7.8,2.4,10.1
				c-0.8,2-2.3,3.5-4.4,4.3c-0.8,0.3-1.6,0.5-2.3,0.7c-0.2,0-0.4,0.1-0.6,0.1c0,0-0.1,0-0.1,0c-0.2,0-0.3,0-0.5,0
				c-2.1-0.1-6.2-1.2-9.6-7.4c-0.1-0.2-0.2-0.4-0.2-0.6c-0.5-1.2-1.5-4.3-1.5-8.3c0.2-5.3,1.9-9.8,4.7-13.4c0.1-0.2,0.3-0.3,0.4-0.5
				c0.9-1.1,2-2.1,3.1-3.1c0.9-0.7,1.8-1.3,2.7-1.8c0,0,0,0,0,0c1.8-1.1,3.5-1.8,5.3-2.4c0.1,0,0.1,0,0.2-0.1
				c0.6-0.2,1.2-0.3,1.8-0.4c0.8-0.2,1.5-0.3,2.2-0.4c0.1,0,0.3,0,0.4-0.1c0.4-0.1,0.8-0.1,1.3-0.1c3.5-0.2,6.7,0.4,9.5,1.2
				c2.2,0.7,4.6,1.8,7.3,3.4c0.3,0.2,0.7,0.4,1,0.7c0.6,0.5,1.1,0.7,1.4,0.9c0,0,0.1,0.1,0.2,0.1c0.7,0.2,0.9-0.2,1-0.2
				c0,0,0-0.1,0.1-0.1c0-0.1,0.1-0.1,0.1-0.1c0-0.1,0.1-0.1,0.1-0.2c0-0.1,0.1-0.1,0.1-0.1l0,0c0,0,0-0.1,0.1-0.1c0,0,0,0,0-0.1l0,0
				c0-0.1,0.1-0.2,0.1-0.2c0,0,0-0.1,0-0.1l0,0c0,0,0,0,0-0.1c0-0.1,0.1-0.1,0.1-0.1l0,0c0.1-0.1,0.1-0.3,0.2-0.4
				c0.3-0.5,0.1-0.8-0.3-1.4c-0.2-0.3-0.8-1-1.3-0.9c-0.5,0.1-1,0.2-1.5,0.2c-0.9-0.8-1.7-1.4-2.3-1.9c0,0-0.1-0.1-0.1-0.1
				C57,9,56.9,8.3,56.9,7.7c0-0.9-0.6-1.4-1.3-2c-1.2-0.8-1.6-1.2-2.5-0.8c-0.7,0.4-1.6,0.7-2.5,0.6c-1.1-0.5-2.3-1-3.6-1.4
				c-0.2-0.1-0.5-0.2-0.7-0.3c-0.6-0.7-0.9-1.8-1.2-2.5c-0.3-0.8-1.3-1-2.2-1.2c-0.7-0.1-1.7-0.4-2.1,0.2c-0.8,1.1-1.5,1.8-2.6,2.1
				c-0.1,0-0.2,0-0.3,0c0,0,0,0,0,0c-2.2-0.1-4.2,0-6.1,0.3c-1.1-0.2-1.9-1-2.9-2.4c-0.4-0.5-2.2-0.4-3-0.2
				c-0.9,0.3-1.9,0.8-1.9,1.5c-0.1,1.9-0.3,3-1.1,3.9c-0.1,0-0.1,0.1-0.2,0.1c-3.6,1.8-5.9,3.8-6.4,4.2c0,0,0,0-0.1,0.1
				c-0.1,0.1-0.2,0.1-0.2,0.2c-1,0.2-1.9,0-2.9-0.6c-1.6-1.1-2.6-0.5-3.7,0.7c-1.1,1.2-2.2,2.3-0.9,4.1c0.8,1.1,1.1,2.2,0.9,3.4
				c-0.3,0.6-0.6,1.2-1,1.9c-0.6,1.2-1.2,2.5-1.7,4.1c0,0,0,0.1,0,0.1c-0.5,1.4-0.9,2.8-1.1,4.1c0,0,0,0.1,0,0.1
				c-0.7,0.9-1.7,1.5-3,1.6C0,29.9,0,31.6,0,33.1c0,1.6-0.2,3.7,1.9,4.2c1.4,0.3,2.5,0.8,3.3,1.7c0,0,0,0.1,0,0.1
				c0,0.2,0.1,0.3,0.1,0.5c0.3,1.6,0.7,3,1.2,4.4l0,0l0,0C7,45.6,7.6,47,8.2,48.3c0,0,0,0.1,0.1,0.2c0.1,1.8-0.8,3.4-1.9,5.1
				c-1.9,2.8-1.9,2.9,0.2,5.5c0.7,0.8,1.5,1.6,2.3,2.3c1.4,1.3,2.9,2,4.8,0.5c0.6-0.5,2-1.1,2.7-1.4c1-0.4,2-0.4,2.8-0.2
				c0.9,0.5,1.8,1,2.6,1.5c1.2,0.6,2.6,1.3,4.3,1.9c0.1,0,0.2,0.1,0.3,0.1c2.5,1.5,3.7,3.9,4.1,7c0.1,0.7,1,1.8,1.6,1.8
				c2.5,0.3,5,0.3,7.5,0.2c1.4,0,1.9-1,2.4-2.3c0.8-2,1.5-4.3,3-5.7c0.2-0.2,0.4-0.4,0.7-0.5c0.4-0.1,0.7-0.2,1.1-0.3
				c3.2-1,6.7-2.7,10-5.4c2.2,0.1,3.5,2,6.1,3.3c0.8,0.4,2.3,0.2,2.8-0.3c1.8-2,3.4-4.2,4.9-6.5C71.6,53.6,71.4,52.3,69.8,50.9
				L69.8,50.9z"/>
			<path class="st0" d="M62.3,14.4L62.3,14.4L62.3,14.4z"/>
		</g>
	</g>
</g>
</svg>
