<?xml version="1.0" encoding="UTF-8" standalone="no"?>
<svg
   xmlns:dc="http://purl.org/dc/elements/1.1/"
   xmlns:cc="http://creativecommons.org/ns#"
   xmlns:rdf="http://www.w3.org/1999/02/22-rdf-syntax-ns#"
   xmlns:svg="http://www.w3.org/2000/svg"
   xmlns="http://www.w3.org/2000/svg"
   xmlns:sodipodi="http://sodipodi.sourceforge.net/DTD/sodipodi-0.dtd"
   xmlns:inkscape="http://www.inkscape.org/namespaces/inkscape"
   id="Capa_2"
   data-name="Capa 2"
   viewBox="0 0 96.87 42.199999"
   version="1.1"
   sodipodi:docname="mano.svg"
   inkscape:version="1.0.2 (e86c870879, 2021-01-15, custom)"
   width="96.870003"
   height="42.200001">
  <metadata
     id="metadata20">
    <rdf:RDF>
      <cc:Work
         rdf:about="">
        <dc:format>image/svg+xml</dc:format>
        <dc:type
           rdf:resource="http://purl.org/dc/dcmitype/StillImage" />
        <dc:title />
      </cc:Work>
    </rdf:RDF>
  </metadata>
  <sodipodi:namedview
     pagecolor="#ffffff"
     bordercolor="#666666"
     borderopacity="1"
     objecttolerance="10"
     gridtolerance="10"
     guidetolerance="10"
     inkscape:pageopacity="0"
     inkscape:pageshadow="2"
     inkscape:window-width="1920"
     inkscape:window-height="1017"
     id="namedview18"
     showgrid="false"
     inkscape:zoom="4.3891355"
     inkscape:cx="-35.472114"
     inkscape:cy="36.226409"
     inkscape:window-x="-8"
     inkscape:window-y="-8"
     inkscape:window-maximized="1"
     inkscape:current-layer="g14"
     inkscape:document-rotation="0" />
  <defs
     id="defs4">
    <style
       id="style2">
      .cls-1 {
        fill: #fff;
      }
    </style>
  </defs>
  <g
     id="g14"
     style="fill:#000000">
    <g
       id="g835"
       transform="translate(0,-54.613741)"
       style="fill:#ffffff">
      <path
         class="cls-1"
         d="m 26.19,58.87 c -2.79,-0.01 -5.45,0.52 -8.01,1.66 -4.98,2.21 -9.97,4.38 -14.96,6.58 -1.23,0.54 -2.47,0.18 -3,-0.93 -0.54,-1.12 -0.07,-2.34 1.18,-2.89 5.28,-2.32 10.52,-4.76 15.88,-6.89 6.3,-2.5 12.67,-2.35 18.9,0.42 1.96,0.87 3.69,2.15 5.03,3.81 1.32,1.65 3.01,2.53 4.98,3.09 2.94,0.84 2.92,0.86 5.5,-0.77 3.28,-2.07 6.55,-4.14 9.87,-6.14 2.86,-1.72 5.94,-2.49 9.28,-1.78 1.55,0.33 2.92,1.06 4.11,2.09 0.33,0.29 0.6,0.32 1.02,0.19 2.88,-0.91 5.63,-0.56 8.2,0.98 0.56,0.34 1.04,0.83 1.5,1.3 0.25,0.26 0.44,0.31 0.78,0.2 1.76,-0.6 3.54,-0.95 5.41,-0.55 4.36,0.93 6.34,5.42 4.06,9.25 -1.08,1.81 -2.65,3.15 -4.39,4.28 -8.38,5.49 -16.76,10.96 -25.16,16.41 -2.81,1.82 -5.71,3.51 -8.54,5.3 -4.48,2.82 -9.18,3.04 -13.94,0.96 -3.21,-1.4 -6.32,-3.05 -9.46,-4.62 -3.54,-1.76 -7.07,-3.55 -10.59,-5.34 -1.65,-0.84 -3.2,-0.69 -4.74,0.33 -1.81,1.21 -3.67,2.35 -5.51,3.52 -1.12,0.71 -2.39,0.49 -3.04,-0.51 -0.67,-1.03 -0.36,-2.3 0.78,-3.03 1.9,-1.22 3.81,-2.43 5.72,-3.65 2.73,-1.74 5.56,-1.93 8.47,-0.52 2.83,1.38 5.62,2.83 8.44,4.24 3.77,1.89 7.53,3.81 11.33,5.62 2.03,0.97 4.2,1.42 6.48,1 1.41,-0.26 2.69,-0.88 3.88,-1.64 8.13,-5.16 16.25,-10.32 24.36,-15.51 3.01,-1.93 6,-3.88 8.94,-5.91 1.1,-0.76 2.04,-1.75 3.04,-2.66 0.19,-0.17 0.31,-0.42 0.44,-0.65 0.64,-1.18 0.07,-2.49 -1.27,-2.7 -0.74,-0.12 -1.54,-0.08 -2.27,0.08 -2.43,0.52 -4.51,1.8 -6.56,3.15 -6,3.96 -12,7.91 -18.03,11.82 -1.67,1.08 -3.59,1.49 -5.55,1.5 -4.7,0.02 -9.41,0.07 -14.11,-0.11 -3.88,-0.15 -7.67,-1.04 -11.42,-2.04 -1.19,-0.32 -1.83,-1.43 -1.54,-2.57 0.29,-1.11 1.41,-1.76 2.6,-1.51 2.45,0.51 4.9,1.03 7.35,1.52 2.89,0.57 5.82,0.54 8.75,0.52 2.58,-0.01 5.17,0 7.75,0 1.2,0 2.38,-0.15 3.49,-0.65 0.99,-0.44 1.55,-1.15 1.59,-2.29 0.05,-1.16 -0.38,-2 -1.38,-2.56 C 60.61,69.59 59.26,69.51 57.9,69.44 55.44,69.3 52.98,69.22 50.54,68.95 47.42,68.6 44.37,67.82 41.53,66.46 40.5,65.97 39.63,65.12 38.74,64.37 38.19,63.91 37.72,63.34 37.24,62.79 35.29,60.6 32.78,59.51 29.92,59.17 28.68,59.02 27.43,58.96 26.18,58.86 Z m 55.72,3.01 c -0.2,-0.13 -0.31,-0.22 -0.43,-0.28 -0.22,-0.1 -0.44,-0.19 -0.67,-0.27 -1.76,-0.59 -3.4,-0.23 -4.92,0.69 -3.19,1.93 -6.35,3.91 -9.52,5.88 -0.16,0.1 -0.31,0.22 -0.37,0.26 0.5,1.12 0.97,2.15 1.45,3.21 4.78,-3.14 9.58,-6.28 14.47,-9.49 z M 71.58,59.71 c -0.28,-0.14 -0.45,-0.24 -0.64,-0.31 -0.26,-0.1 -0.53,-0.19 -0.81,-0.25 -2.26,-0.46 -4.35,0.09 -6.28,1.21 -2.48,1.44 -4.88,3.01 -7.31,4.52 -0.1,0.06 -0.18,0.17 -0.32,0.3 0.17,0.02 0.25,0.02 0.33,0.03 1.68,0.16 3.37,0.32 5.05,0.46 0.2,0.02 0.44,-0.06 0.61,-0.17 1.14,-0.69 2.27,-1.39 3.41,-2.09 1.95,-1.21 3.91,-2.42 5.97,-3.7 z"
         id="path6"
         style="fill:#ffffff" />
      <polygon
         class="cls-1"
         points="34.14,57.07 32.7,57.66 34.52,58.59 "
         id="polygon12"
         style="fill:#ffffff" />
    </g>
  </g>
</svg>
