<?xml version="1.0" encoding="UTF-8" standalone="no"?>
<svg
   xmlns:dc="http://purl.org/dc/elements/1.1/"
   xmlns:cc="http://creativecommons.org/ns#"
   xmlns:rdf="http://www.w3.org/1999/02/22-rdf-syntax-ns#"
   xmlns:svg="http://www.w3.org/2000/svg"
   xmlns="http://www.w3.org/2000/svg"
   xmlns:sodipodi="http://sodipodi.sourceforge.net/DTD/sodipodi-0.dtd"
   xmlns:inkscape="http://www.inkscape.org/namespaces/inkscape"
   id="Capa_2"
   data-name="Capa 2"
   viewBox="0 0 93.82 71.72"
   version="1.1"
   sodipodi:docname="mano.svg"
   width="93.82"
   height="71.720001"
   inkscape:version="1.0.2 (e86c870879, 2021-01-15, custom)">
  <metadata
     id="metadata12">
    <rdf:RDF>
      <cc:Work
         rdf:about="">
        <dc:format>image/svg+xml</dc:format>
        <dc:type
           rdf:resource="http://purl.org/dc/dcmitype/StillImage" />
        <dc:title></dc:title>
      </cc:Work>
    </rdf:RDF>
  </metadata>
  <sodipodi:namedview
     pagecolor="#ffffff"
     bordercolor="#666666"
     borderopacity="1"
     objecttolerance="10"
     gridtolerance="10"
     guidetolerance="10"
     inkscape:pageopacity="0"
     inkscape:pageshadow="2"
     inkscape:window-width="1920"
     inkscape:window-height="1017"
     id="namedview10"
     showgrid="false"
     inkscape:zoom="5.9258225"
     inkscape:cx="50.066459"
     inkscape:cy="26.381529"
     inkscape:window-x="-8"
     inkscape:window-y="-8"
     inkscape:window-maximized="1"
     inkscape:current-layer="Capa_2" />
  <defs
     id="defs4">
    <style
       id="style2">
      .cls-1 {
        fill: #f29100;
      }
    </style>
    <style
       id="style837">
      .cls-1 {
        fill: #f29100;
      }
    </style>
    <style
       id="style852">
      .cls-1 {
        fill: #f4bb6e;
      }

      .cls-2 {
        fill: #f29100;
      }
    </style>
    <style
       id="style877">
      .cls-1 {
        fill: #f29100;
      }
    </style>
  </defs>
  <g
     id="Capa_1-2"
     data-name="Capa 1">
    <path
       class="cls-1"
       d="M 69.62,34.05 C 69.46,33.91 69.3,33.76 69.13,33.61 68.58,31.76 67.77,28.92 67.55,27.36 67.08,24.13 66.02,17.63 63.25,15.91 L 49.95,6.62 C 46.9,4.74 31.58,6.62 30.6,6.74 30.05,6.43 29.51,6.13 28.97,5.83 24.35,3.31 19.23,1.71 14.23,0.07 13.82,-0.06 13.36,-0.01 13,0.23 10.9,1.61 9.03,3.26 7.4,5.17 1.81,11.74 -0.7,19.29 0.17,27.91 c 0.26,2.58 23.53,29.88 28.34,35.18 0,0 -0.02,0.02 -0.02,0.03 1.22,1.21 4.92,4.85 6.08,6 3.4,3.39 8.62,3.47 12.1,0.18 0.3,-0.29 0.52,-0.3 0.85,-0.1 1.78,1.07 3.72,1.37 5.74,1.03 2.92,-0.48 5.05,-2.09 6.49,-4.66 0.13,-0.23 0.4,-0.51 0.63,-0.53 3.81,-0.34 6.87,-2.81 7.97,-6.49 0.12,-0.4 0.3,-0.62 0.71,-0.75 2.19,-0.68 3.84,-2.07 4.99,-4.02 0.81,-1.37 2.5,-4.77 1.42,-9.87 -0.81,-3.83 -2.95,-7.24 -5.85,-9.86 z M 46.23,11.02 c 3.14,0.36 6.42,2.97 8.37,4.4 1.54,1.14 5.63,3.89 6.21,5.77 0.64,2.1 1.38,5.32 1.73,6.9 C 55.51,22.54 46.67,16.37 37.7,10.9 c 2.75,0.1 6.27,-0.15 8.53,0.11 z m 21.2,42.95 c -0.46,0.12 -0.77,0.03 -1.11,-0.32 -2.73,-2.75 -5.47,-5.48 -8.21,-8.22 -3.16,-3.16 -6.33,-6.31 -9.48,-9.49 -1.02,-1.03 -2.34,-0.54 -2.78,0.34 -0.34,0.68 -0.12,1.52 0.57,2.21 5.89,5.88 11.77,11.76 17.66,17.64 0.31,0.31 0.46,0.59 0.35,1.04 -0.48,1.98 -2.33,3.58 -4.33,3.75 -0.45,0.04 -0.78,-0.08 -1.11,-0.42 -5.36,-5.38 -10.73,-10.74 -16.1,-16.11 -0.72,-0.72 -1.75,-0.76 -2.43,-0.12 -0.66,0.62 -0.66,1.7 0.02,2.45 0.09,0.1 0.19,0.19 0.28,0.28 5.07,5.07 10.14,10.14 15.22,15.2 0.41,0.41 0.44,0.73 0.2,1.21 -0.49,0.96 -1.18,1.72 -2.12,2.22 -1.38,0.73 -3.45,0.96 -5.03,-0.68 -3.47,-3.6 -7.05,-7.1 -10.59,-10.63 -0.82,-0.82 -1.9,-0.9 -2.59,-0.21 -0.73,0.74 -0.66,1.72 0.19,2.56 2.71,2.71 5.41,5.42 8.13,8.11 0.38,0.38 0.39,0.63 0.07,1.05 -1.6,2.07 -4.79,2.3 -6.63,0.46 C 36.53,65.21 35.45,64.13 34.37,63.06 34.2,62.9 31.66,60.21 31.44,60 31.23,59.72 5.81,30.65 5.51,30.12 5.04,29.28 4.38,28.41 4.31,27.51 4.15,25.45 4.09,23.34 4.38,21.3 5.31,14.7 8.46,9.29 13.51,4.96 c 0.47,-0.4 0.88,-0.49 1.48,-0.3 5.45,1.79 27.7,13.71 48.78,32.2 4.72,4.84 7.64,9.83 7.68,9.91 1.2,2.45 -1.03,6.41 -4.03,7.18 z"
       id="path6" />
  </g>
  <path
     class="cls-2"
     d="m 93.33294,34.089457 c -3.11,-7.15 -6.33,-14.25 -10.11,-21.07 -1.51,-2.73 -3.32,-5.3100009 -4.99,-7.9500009 -0.35,-0.55 -0.76,-0.73 -1.46,-0.51 -4.13,1.3 -8.27,2.56 -12.41,3.79 -0.4,0.12 -0.91,0.12 -1.31,-0.02 -5.57,-1.88 -11.13,-3.79 -16.7,-5.68 -0.93,-0.32 -1.89,-0.7 -2.86,-0.74 -2.03,-0.1 -3.98,0.4 -5.88,1.13 -5.8,2.24 -11.63,4.47 -17.46,6.68 -1.47,0.5600009 -2.39,2.3200009 -1.78,3.6500009 0.71,1.55 1.71,2.88 3.04,3.96 2.52,2.05 5.46,2.73 8.64,2.75 0.93,-0.12 1.88,-0.15 2.78,-0.39 2.95,-0.76 5.93,-1.47 8.82,-2.45 1.51,-0.51 2.47,-0.24 3.63,0.77 4.8,4.21 9.69,8.34 14.55,12.48 4.28,3.65 8.56,7.3 12.85,10.94 0.28,0.24 0.64,0.45 0.96,0.56 1.26,0.43 2.03,0.25 3.03,0.17 1.99,-0.16 4.01,-0.33 5.96,-0.74 4.04,-0.84 7.53,-2.74 10.41,-5.74 0.48,-0.5 0.6,-0.91 0.3,-1.6 z"
     id="path858" />
  <g
     id="g889"
     transform="translate(5.2339615,33.311923)">
    <path
       class="cls-1"
       d="M 3.62,15.28 3.07,14.58 C 1.76,12.95 -1.58,9.26 0.89,6.09 L 4.82,1.67 c 1.39,-1.49 4.41,-2.68 7.41,-0.4 1.16,0.88 1.72,1.94 1.96,2.51 0.11,0.27 0.09,0.57 -0.05,0.83 -0.16,0.29 -0.45,0.72 -0.93,1.23 l -7.23,8.28 c -0.94,0.98 -1.37,2.1 -2.36,1.16 z"
       id="path881" />
    <path
       class="cls-1"
       d="m 7.49,20.95 c 0,0 -2.64,-3.04 -3.29,-5 L 13.07,5.3 c 1.82,-2.31 5.19,-2.72 7.51,-0.91 l 0.39,0.31 c 2.31,1.82 2.97,5.25 1.15,7.57 l -9.15,10.17 c -2.18,2.06 -2.54,1.59 -5.49,-1.49 z"
       id="path883" />
    <path
       class="cls-1"
       d="m 13.69,28.69 c 0,0 -1.23,-1.39 -2.3,-3.2 -0.34,-0.58 -0.48,-1.17 -0.01,-1.67 L 21.67,12.75 c 2.76,-2.67 5.84,0.75 5.84,0.75 2.51,2.48 2.49,5.53 0.13,8.02 l -8.67,9.26 C 16.75,32.9 15.56,30.62 13.7,28.69 Z"
       id="path885" />
    <path
       class="cls-1"
       d="m 21.76,36.41 c 0,0 -2.21,-1.97 -3.42,-3.38 -0.43,-0.5 -0.64,-1.09 -0.22,-1.53 l 9.38,-9.92 c 1.84,-1.8 5.32,1.24 5.32,1.24 2.54,2.45 2.36,5.16 0.72,7.11 l -5.19,6.11 c -2.04,1.88 -3.55,1.88 -6.6,0.37 z"
       id="path887" />
  </g>
</svg>
